<?xml version="1.0" encoding="UTF-8"?>
<svg version="1.1" xmlns="http://www.w3.org/2000/svg" width="883" height="883">
<path d="M0 0 C0.88042969 0.48082031 1.76085937 0.96164063 2.66796875 1.45703125 C16.24416918 9.45294516 25.44750573 22.36016904 30.3125 37.25 C31.87440798 43.64232906 32.70383875 50.02847897 33.4362793 56.56323242 C33.56484912 57.69676494 33.69341894 58.83029745 33.82588482 59.99817944 C35.28902279 73.18965378 36.41888048 86.4091172 37.52974153 99.63403726 C37.83625903 103.27208007 38.14750705 106.9097188 38.45817566 110.54740906 C39.04897344 117.47290537 39.63596561 124.39871822 40.2213971 131.32467002 C41.05672495 141.20516518 41.89754066 151.0851935 42.73888969 160.96517754 C42.86742718 162.47482113 42.99595768 163.98446532 43.1244812 165.49411011 C43.21989757 166.61480985 43.21989757 166.61480985 43.31724155 167.75814998 C43.70255859 172.28653444 44.0860676 176.81506803 44.46818388 181.34372365 C45.77268805 196.80113786 47.10288622 212.25545344 48.50816071 227.70406544 C48.93389157 232.39472691 49.35439489 237.0858611 49.77524465 241.7769627 C50.10746277 245.47241404 50.44369915 249.16740236 50.78995705 252.86156654 C52.05783131 266.4044064 53.22994422 279.91835808 53.35083008 293.52856445 C53.37378537 294.97677849 53.37378537 294.97677849 53.3972044 296.45424938 C53.36587765 303.34188285 51.90809845 307.71807067 48.4375 313.6875 C42.87197313 318.96761523 36.45452913 320.2587166 28.9375 320.4375 C21.81639408 320.21303036 16.33380246 318.92619698 10.1875 315.375 C4.90524799 309.63998353 3.74342721 303.4125623 2.98413086 295.80029297 C2.85947024 294.61409268 2.85947024 294.61409268 2.73229122 293.40392876 C1.9376434 285.70375587 1.27062894 277.99303295 0.64178276 270.27778625 C0.43100579 267.69275833 0.2169445 265.10801771 0.00221252 262.52331543 C-0.31354812 258.72031692 -0.62821433 254.91723027 -0.94207764 251.11407471 C-4.28090029 210.70161474 -7.76554716 170.30176403 -11.32288533 129.9080292 C-11.75258028 125.025363 -12.17899725 120.14241735 -12.60397339 115.25933838 C-13.18066508 108.63376256 -13.76377626 102.00877324 -14.35121346 95.38414001 C-14.56784313 92.9307371 -14.78247131 90.47715652 -14.99496269 88.02339172 C-15.28774466 84.64739538 -15.58800882 81.27214364 -15.89013672 77.89697266 C-15.97325324 76.91888201 -16.05636976 75.94079136 -16.14200497 74.9330616 C-17.10570705 64.36410337 -18.50434066 55.35103672 -26.375 47.6875 C-31.50986146 44.38651763 -35.70806928 42.24445121 -41.94921875 43.359375 C-47.83773516 45.19883536 -52.6964697 48.79058684 -56 54 C-57.98453244 58.82509494 -58.33889446 63.27688675 -58.29663086 68.43115234 C-58.29201056 69.29123587 -58.28739027 70.15131939 -58.28262997 71.03746605 C-58.08231398 83.70069915 -56.70226398 96.3009288 -55.4686439 108.89614511 C-55.10036829 112.67844144 -54.74328573 116.46179671 -54.38490295 120.24504089 C-53.77203373 126.7001107 -53.1527551 133.154537 -52.52886963 139.60855103 C-51.55592577 149.67517719 -50.5968492 159.74309934 -49.64013672 169.8112793 C-49.31916337 173.18755258 -48.99810102 176.5638174 -48.67700195 179.94007874 C-48.5976361 180.77467698 -48.51827024 181.60927522 -48.43649936 182.46916431 C-47.8757145 188.36450627 -47.3131768 194.25967933 -46.74975586 200.1547699 C-44.18923994 226.94883407 -41.66910996 253.74636976 -39.20236206 280.54925537 C-38.72678517 285.71502828 -38.24689208 290.88038982 -37.7658186 296.04565334 C-37.41412009 299.8299142 -37.06555698 303.61445846 -36.71801567 307.39910316 C-36.5601048 309.11286847 -36.40102033 310.82652615 -36.24061775 312.54006004 C-36.02498155 314.84647456 -35.81390278 317.15326237 -35.60400391 319.46020508 C-35.48634674 320.73398514 -35.36868958 322.0077652 -35.24746704 323.32014465 C-34.98419754 327.2349839 -34.95804115 331.07783098 -35 335 C-33.87464844 334.60167969 -32.74929687 334.20335937 -31.58984375 333.79296875 C-21.80597678 330.3927267 -12.25594913 327.62366393 -2 326 C-0.93737442 325.82712463 0.12525116 325.65424927 1.22007751 325.47613525 C8.076877 324.63793643 15.01141634 324.84349805 21.90844727 324.83886719 C23.52073783 324.83423244 25.13302732 324.8292069 26.74531555 324.82382202 C31.10934577 324.81075751 35.47336065 324.8042645 39.83740735 324.79981136 C42.57065804 324.79687043 45.30390463 324.79276369 48.03715324 324.78830719 C56.60843083 324.77464666 65.17969893 324.76497348 73.75098664 324.7611053 C83.60859516 324.75663083 93.4660646 324.73910524 103.32363087 324.7101047 C110.9672783 324.68840667 118.61088684 324.67839667 126.2545647 324.67706418 C130.80844706 324.67602177 135.36219842 324.67023532 139.91604805 324.65224457 C144.20646495 324.63562317 148.49665435 324.63367569 152.78709221 324.64238358 C154.34982289 324.64314654 155.91256653 324.63891071 157.4752655 324.62892532 C174.15510895 324.52871146 191.15693951 326.23156294 204 338 C215.59174744 350.32510289 217.69877587 365.57623459 217.30859375 381.890625 C216.09891181 408.05187928 204.68193139 430.57456024 185.5625 448.25390625 C163.90272681 466.45809063 138.42150755 471.02613341 111 473 C111.72703125 473.52207031 112.4540625 474.04414062 113.203125 474.58203125 C148.45988249 500.39178577 170.25695366 538.37030846 180.63671875 580.58984375 C181.86416577 588.73322879 181.81915439 596.62508118 178 604 C173.74014978 609.04455947 169.50857538 611.94658896 163 613 C154.24433187 613.63588651 146.30887407 613.3513465 139.1875 607.8125 C135.27755811 602.78543185 132.93237555 597.24089718 131.12597656 591.16699219 C125.65665619 572.77949545 117.05464753 554.95411794 105 540 C103.84177734 538.49759766 103.84177734 538.49759766 102.66015625 536.96484375 C98.21567379 531.31997116 93.61791599 526.46527461 88 522 C87.06671875 521.23042969 86.1334375 520.46085938 85.171875 519.66796875 C68.5949136 506.23608481 48.45427841 496.72506398 28.63867188 489.09838867 C16.00703924 484.22983018 16.00703924 484.22983018 13 478 C9.96917567 470.71992951 9.91966294 462.35304751 12.4375 454.9375 C14.58956306 450.07262506 17.70962044 446.93845684 21.56640625 443.34765625 C26.54875484 438.54124934 30.77405463 432.98158326 34.91015625 427.44140625 C39.49131527 421.3097011 43.13019535 417.21410566 51 416 C60.71181241 415.40956904 69.68728836 416.62911109 79.1875 418.5 C89.34818612 420.33975307 99.26868822 421.4941798 109.625 421.5 C110.69516357 421.50580078 111.76532715 421.51160156 112.86791992 421.51757812 C128.41455978 421.27338367 142.41309857 416.31128529 153.7421875 405.4921875 C160.50710094 398.02503392 165.55129382 389.35536127 166.5703125 379.2578125 C166.65297363 378.45746582 166.73563477 377.65711914 166.82080078 376.83251953 C166.87993652 376.22778809 166.93907227 375.62305664 167 375 C146.80596115 375.03728128 126.61210953 375.09730951 106.41822052 375.18390274 C97.04036702 375.22359413 87.66259623 375.25603666 78.28466797 375.27099609 C70.10421336 375.2840642 61.92394151 375.31115929 53.74358988 375.35461307 C49.41815327 375.37711267 45.0929411 375.39291766 40.7674408 375.39188385 C36.68300305 375.39113036 32.59905923 375.40935286 28.51474953 375.44116783 C27.0282651 375.4495772 25.54172466 375.451479 24.05522728 375.44580269 C10.77601241 375.40191117 -2.48500893 377.34770999 -14.3125 383.75 C-14.97145264 384.09434082 -15.63040527 384.43868164 -16.30932617 384.79345703 C-30.94449295 392.63812047 -43.00974782 403.82470226 -53 417 C-53.80179687 418.04800781 -54.60359375 419.09601563 -55.4296875 420.17578125 C-71.74782627 441.97372527 -86.39490285 469.33254886 -83.5625 497.33203125 C-77.96075573 533.86007202 -52.52731185 565.30902269 -28.1640625 591.65625 C-25.64363091 594.3859593 -23.20455398 597.17868137 -20.76953125 599.984375 C-18.74885044 602.28607764 -16.68687382 604.54764379 -14.625 606.8125 C-9.8950242 612.0626931 -5.40758316 617.47751385 -1 623 C-0.18402344 624.00933594 0.63195312 625.01867187 1.47265625 626.05859375 C20.93820512 650.45270203 26.46745796 674.16487513 25.87548828 705.11743164 C25.79281322 712.36509034 26.70600879 718.11802636 29 725 C32.65088373 727.19053024 36.04030887 728.12423635 40.27234364 728.13422108 C41.14894888 728.13867892 42.02555412 728.14313676 42.92872316 728.14772969 C44.37441833 728.14745315 44.37441833 728.14745315 45.84931946 728.14717102 C46.87262098 728.15084771 47.8959225 728.1545244 48.95023316 728.1583125 C52.39561944 728.16936787 55.84097558 728.1731963 59.28637695 728.17700195 C61.74996029 728.18326511 64.21354268 728.18991178 66.67712402 728.19691467 C74.08122966 728.21615375 81.48532729 728.22674385 88.88945058 728.23564246 C92.37586273 728.24002581 95.86227336 728.24539244 99.34868431 728.25063133 C110.9372962 728.26764191 122.52590715 728.28213675 134.11452961 728.28938007 C137.1215191 728.29128997 140.12850858 728.29321031 143.13549805 728.29516602 C143.88287199 728.29564976 144.63024593 728.2961335 145.40026756 728.2966319 C157.51110803 728.30493477 169.6218498 728.33027674 181.73264716 728.36274669 C194.16516953 728.39580767 206.59764172 728.4138279 219.03020829 728.41702431 C226.0112474 728.41919016 232.99214253 728.42794967 239.97313881 728.45348549 C246.53863705 728.47744602 253.10392252 728.48102424 259.66947174 728.47072411 C262.08096109 728.47022716 264.49246294 728.47659409 266.9039135 728.49028015 C270.19283256 728.50790392 273.48081083 728.50093915 276.76972961 728.48774719 C278.20538654 728.50420106 278.20538654 728.50420106 279.67004663 728.52098733 C285.26539888 728.46670016 288.61561928 727.83181074 293 724 C296.34828117 718.3664121 296.41436708 713.29330886 296.37109375 706.8515625 C296.38849801 704.85546723 296.40608211 702.85937351 296.42382812 700.86328125 C296.433816 697.75924462 296.43751686 694.65532142 296.43579102 691.55126953 C296.46761376 665.07049979 302.8063031 646.82001153 317.57910156 625.05517578 C363.5435699 557.33158314 378.7911856 482.82156304 378.26428223 402.04803467 C378.24513879 398.54895879 378.24116058 395.04993475 378.23744583 391.55081367 C378.21774659 374.77400144 378.0380588 358.03962248 377.23144531 341.27954102 C376.85787409 333.31182415 376.7774693 325.34366838 376.75976562 317.36816406 C376.75333519 315.64416351 376.73984532 313.92017254 376.71875 312.19628906 C376.23642463 272.63053581 382.36126382 232.8787816 386.61410284 193.5979048 C387.4556382 185.82314352 388.29124847 178.04774865 389.12676001 170.27233815 C389.86194196 163.43273055 390.59874946 156.59329789 391.3359375 149.75390625 C391.41559974 149.01475873 391.49526197 148.2756112 391.57733822 147.51406527 C393.21750627 132.29995766 394.86642881 117.08716678 396.59082031 101.88232422 C396.71132311 100.81602122 396.8318259 99.74971823 396.9559803 98.65110302 C397.50082942 93.83256682 398.05029196 89.01467285 398.61044312 84.19789124 C398.79857991 82.54592899 398.98654929 80.89394766 399.17431641 79.24194336 C399.25944614 78.5283988 399.34457588 77.81485424 399.43228531 77.07968712 C400.55653704 67.06285486 400.72389154 58.61998307 394.4375 50.25 C390.70903374 46.20619082 386.28615503 44.30042791 381 43 C375.40306679 42.80361638 371.71810413 45.05419048 367.11328125 47.94140625 C361.67886183 53.23519374 360.29835106 60.0859603 359.44921875 67.3671875 C359.2731031 68.7262471 359.2731031 68.7262471 359.09342957 70.11276245 C358.71407617 73.07351519 358.3562852 76.03639019 358 79 C357.74772024 81.01995844 357.49461707 83.03981419 357.24072266 85.05957031 C356.40767971 91.7452534 355.60946113 98.43493629 354.8125 105.125 C354.51045752 107.64599832 354.20822156 110.16697347 353.9058075 112.68792725 C353.26569836 118.0280664 352.62707984 123.36838035 351.98983765 128.7088623 C351.1598951 135.66422811 350.32718894 142.61926023 349.49368191 149.57419968 C346.31141024 176.12776708 343.14538238 202.6831698 340.03124619 229.24482727 C339.64256192 232.55954419 339.25337694 235.87420196 338.86404419 239.18884277 C337.79030222 248.33301486 336.71809171 257.4773355 335.65802288 266.6231041 C335.23230551 270.28869425 334.80292099 273.95384841 334.37262917 277.61890411 C334.17740988 279.28905079 333.98382035 280.95938898 333.79205894 282.62993622 C330.71542271 309.42084423 330.71542271 309.42084423 323.03515625 315.57421875 C314.60541379 321.05276646 304.74397176 321.38044794 295.00390625 319.38671875 C288.81596631 317.24872428 285.06206713 313.78516003 282 308 C277.75291649 293.61530358 281.70767616 275.62894464 283.60546875 261.08203125 C283.88517108 258.86250886 284.16361687 256.64282782 284.44091797 254.42300415 C285.03464815 249.68583911 285.63532518 244.94963216 286.24179077 240.21408081 C287.69891196 228.83063614 289.11974095 217.44264136 290.54009438 206.05455971 C290.86869587 203.42031037 291.19771773 200.78611344 291.52715111 198.151968 C294.03494927 178.09543027 296.42388882 158.0272993 298.71875 137.9453125 C298.86661768 136.65203978 299.01448536 135.35876705 299.16683388 134.02630424 C300.59699822 121.50478584 302.01484021 108.98190078 303.42204857 96.45778275 C303.94132769 91.84451268 304.46451382 87.23169044 304.9883728 82.61893845 C305.34156642 79.49409326 305.68877495 76.36862485 306.03564453 73.24307251 C308.91378677 47.66224069 312.14419248 23.60897072 333 6 C351.45200208 -7.67703665 373.27484419 -10.21005116 395.68017578 -7.69970703 C412.66756567 -4.97101846 427.12033254 3.19705195 437.8125 16.75 C456.5547176 43.17015648 452.51244281 73.46756081 448.99965549 103.76492763 C448.56502901 107.53577178 448.14334472 111.30806542 447.7202301 115.08021545 C446.91153564 122.27395436 446.09274315 129.46650223 445.2696715 136.65860897 C443.64793153 150.83249105 442.04750999 165.00879929 440.44799471 179.18520403 C440.18375522 181.52591338 439.91908447 183.86657365 439.65433884 186.2072258 C436.99039125 209.77273787 434.45690089 233.34978368 432.03515625 256.94140625 C431.96020392 257.67047078 431.88525159 258.39953531 431.80802798 259.1506927 C431.31328315 263.96419038 430.82173843 268.77800328 430.33227539 273.59204102 C430.21113184 274.77901896 430.08998829 275.96599689 429.96517372 277.18894386 C428.41945861 292.07520841 428.41945861 292.07520841 427.8671875 307.01953125 C427.86623077 307.72486496 427.86527405 308.43019867 427.86428833 309.15690613 C427.86361599 310.63642466 427.86540312 312.11594633 427.86962891 313.59545898 C427.87490042 315.77139563 427.86969774 317.9471172 427.86328125 320.12304688 C427.85970731 328.2199027 428.08794127 336.27702706 428.49609375 344.36328125 C429.21059949 359.08181662 429.18732588 373.80642879 429.18530273 388.53857422 C429.18522189 391.74501232 429.19211636 394.95130626 429.20581055 398.15771484 C429.32283084 426.04365425 428.55157603 453.84158727 425.25 481.5625 C425.16763092 482.26583466 425.08526184 482.96916931 425.00039673 483.69381714 C417.1788281 549.8390911 393.93016987 607.45545537 356.19482422 662.08349609 C349.58272755 671.78764325 346.7215876 680.73083001 346.69140625 692.44140625 C346.66622613 694.26107063 346.64082843 696.08073202 346.61523438 697.90039062 C346.58669472 700.72142606 346.56263484 703.54240905 346.54370117 706.36352539 C346.37343803 727.66138616 344.36818405 747.01363403 328.97265625 763.12109375 C312.33738504 779.03440021 292.09688155 778.44305984 270.56225586 778.38818359 C267.88032472 778.39225307 265.19841847 778.39748948 262.51649475 778.40411377 C256.01240099 778.41739361 249.50841159 778.41459932 243.00431388 778.40587585 C237.71486335 778.39907751 232.42544189 778.39819183 227.13598824 778.4014473 C226.3807653 778.401907 225.62554236 778.40236669 224.84743388 778.40284032 C223.31282459 778.40379958 221.77821531 778.40477222 220.24360604 778.4057581 C205.8829605 778.41429499 191.52237258 778.40450433 177.1617365 778.388357 C164.85999277 778.37495263 152.55833399 778.37728618 140.2565918 778.39111328 C125.94283943 778.40719452 111.62913744 778.41347404 97.3153773 778.40427649 C95.78698354 778.40332092 94.25858977 778.40237781 92.730196 778.4014473 C91.97835317 778.40098447 91.22651034 778.40052164 90.4518844 778.40004479 C85.17294226 778.39746273 79.89403229 778.40180887 74.61509514 778.40888596 C68.17596347 778.41732938 61.7369414 778.41496131 55.29782217 778.39904372 C52.01726715 778.3911994 48.73693056 778.38963849 45.45637131 778.39799118 C41.88995951 778.40623231 38.32405497 778.39585356 34.75767517 778.38095093 C33.2242279 778.39098918 33.2242279 778.39098918 31.6598019 778.40123022 C16.82512527 778.2816258 3.39192112 773.51360469 -7.4375 763.1875 C-20.48584779 749.18748989 -24.03836331 732.36744156 -24.23828125 713.7421875 C-24.24719391 712.93906128 -24.25610657 712.13593506 -24.26528931 711.30847168 C-24.29466067 707.99603904 -24.31478841 704.6841503 -24.30541992 701.37158203 C-24.29414173 690.9033703 -24.77987913 682.38839072 -30 673 C-30.34458252 672.37512695 -30.68916504 671.75025391 -31.04418945 671.10644531 C-39.09094712 657.68079498 -50.7659591 646.24384258 -61.36328125 634.84765625 C-64.65322679 631.29451507 -67.85225598 627.67909397 -71 624 C-71.83015625 623.03707031 -72.6603125 622.07414063 -73.515625 621.08203125 C-105.77369737 583.48863972 -134.53468693 539.98849737 -134.3125 488.8125 C-134.31034485 488.13402008 -134.3081897 487.45554016 -134.30596924 486.75650024 C-134.19088379 464.11293908 -129.24164149 444.24675546 -119 424 C-118.49895752 423.00419922 -118.49895752 423.00419922 -117.98779297 421.98828125 C-110.16684723 406.53637226 -100.9330765 391.99181149 -89.36328125 379.05078125 C-88.54214844 378.12652344 -87.72101563 377.20226562 -86.875 376.25 C-86.12992188 375.45078125 -85.38484375 374.6515625 -84.6171875 373.828125 C-80.51955409 366.66221537 -83.52489757 355.24036409 -84.29418945 347.30541992 C-84.43454471 345.82509526 -84.57452545 344.34473506 -84.71416473 342.86434269 C-85.09549007 338.83306214 -85.48204483 334.80229817 -85.86952806 330.77160549 C-86.28287717 326.46242453 -86.69141964 322.15278769 -87.10050964 317.84320068 C-87.8016925 310.46307661 -88.50586372 303.08324267 -89.21191406 295.70358276 C-90.2227009 285.13750614 -91.2267825 274.57079979 -92.22928166 264.00393403 C-95.42059495 230.37014447 -98.62682511 196.73787642 -101.90062946 163.11200732 C-102.36887994 158.30098063 -102.83520727 153.48977086 -103.30012512 148.67842102 C-103.42660651 147.36949229 -103.5530879 146.06056356 -103.68340206 144.71197033 C-103.9314285 142.14385703 -104.17933865 139.57573249 -104.42712498 137.00759602 C-105.12826098 129.74936097 -105.83972544 122.49223886 -106.55946827 115.23582649 C-106.99893442 110.78163068 -107.42890539 106.32655415 -107.85637856 101.87119293 C-108.05010934 99.87242366 -108.24767372 97.87402058 -108.4498806 95.876091 C-109.51785455 85.3074998 -110.16911573 74.8280818 -110.20898438 64.20141602 C-110.21463661 63.21610114 -110.22028885 62.23078627 -110.22611237 61.21561337 C-110.12622407 41.97598223 -103.3966375 24.12184781 -89.65234375 10.484375 C-66.61169432 -11.09714641 -27.74788554 -15.26894616 0 0 Z " fill="#18DE4F" transform="translate(265,56)"/>
<path d="M0 0 C0.88042969 0.48082031 1.76085937 0.96164063 2.66796875 1.45703125 C16.24416918 9.45294516 25.44750573 22.36016904 30.3125 37.25 C31.87440798 43.64232906 32.70383875 50.02847897 33.4362793 56.56323242 C33.56484912 57.69676494 33.69341894 58.83029745 33.82588482 59.99817944 C35.28902279 73.18965378 36.41888048 86.4091172 37.52974153 99.63403726 C37.83625903 103.27208007 38.14750705 106.9097188 38.45817566 110.54740906 C39.04897344 117.47290537 39.63596561 124.39871822 40.2213971 131.32467002 C41.05672495 141.20516518 41.89754066 151.0851935 42.73888969 160.96517754 C42.86742718 162.47482113 42.99595768 163.98446532 43.1244812 165.49411011 C43.21989757 166.61480985 43.21989757 166.61480985 43.31724155 167.75814998 C43.70255859 172.28653444 44.0860676 176.81506803 44.46818388 181.34372365 C45.77268805 196.80113786 47.10288622 212.25545344 48.50816071 227.70406544 C48.93389157 232.39472691 49.35439489 237.0858611 49.77524465 241.7769627 C50.10746277 245.47241404 50.44369915 249.16740236 50.78995705 252.86156654 C52.05783131 266.4044064 53.22994422 279.91835808 53.35083008 293.52856445 C53.37378537 294.97677849 53.37378537 294.97677849 53.3972044 296.45424938 C53.36587765 303.34188285 51.90809845 307.71807067 48.4375 313.6875 C42.87197313 318.96761523 36.45452913 320.2587166 28.9375 320.4375 C21.81639408 320.21303036 16.33380246 318.92619698 10.1875 315.375 C4.90524799 309.63998353 3.74342721 303.4125623 2.98413086 295.80029297 C2.85947024 294.61409268 2.85947024 294.61409268 2.73229122 293.40392876 C1.9376434 285.70375587 1.27062894 277.99303295 0.64178276 270.27778625 C0.43100579 267.69275833 0.2169445 265.10801771 0.00221252 262.52331543 C-0.31354812 258.72031692 -0.62821433 254.91723027 -0.94207764 251.11407471 C-4.28090029 210.70161474 -7.76554716 170.30176403 -11.32288533 129.9080292 C-11.75258028 125.025363 -12.17899725 120.14241735 -12.60397339 115.25933838 C-13.18066508 108.63376256 -13.76377626 102.00877324 -14.35121346 95.38414001 C-14.56784313 92.9307371 -14.78247131 90.47715652 -14.99496269 88.02339172 C-15.28774466 84.64739538 -15.58800882 81.27214364 -15.89013672 77.89697266 C-15.97325324 76.91888201 -16.05636976 75.94079136 -16.14200497 74.9330616 C-17.10570705 64.36410337 -18.50434066 55.35103672 -26.375 47.6875 C-31.50986146 44.38651763 -35.70806928 42.24445121 -41.94921875 43.359375 C-47.83773516 45.19883536 -52.6964697 48.79058684 -56 54 C-57.98453244 58.82509494 -58.33889446 63.27688675 -58.29663086 68.43115234 C-58.29201056 69.29123587 -58.28739027 70.15131939 -58.28262997 71.03746605 C-58.08231398 83.70069915 -56.70226398 96.3009288 -55.4686439 108.89614511 C-55.10036829 112.67844144 -54.74328573 116.46179671 -54.38490295 120.24504089 C-53.77203373 126.7001107 -53.1527551 133.154537 -52.52886963 139.60855103 C-51.55592577 149.67517719 -50.5968492 159.74309934 -49.64013672 169.8112793 C-49.31916337 173.18755258 -48.99810102 176.5638174 -48.67700195 179.94007874 C-48.5976361 180.77467698 -48.51827024 181.60927522 -48.43649936 182.46916431 C-47.8757145 188.36450627 -47.3131768 194.25967933 -46.74975586 200.1547699 C-44.18923994 226.94883407 -41.66910996 253.74636976 -39.20236206 280.54925537 C-38.72678517 285.71502828 -38.24689208 290.88038982 -37.7658186 296.04565334 C-37.41412009 299.8299142 -37.06555698 303.61445846 -36.71801567 307.39910316 C-36.5601048 309.11286847 -36.40102033 310.82652615 -36.24061775 312.54006004 C-36.02498155 314.84647456 -35.81390278 317.15326237 -35.60400391 319.46020508 C-35.48634674 320.73398514 -35.36868958 322.0077652 -35.24746704 323.32014465 C-34.98419754 327.2349839 -34.95804115 331.07783098 -35 335 C-33.87464844 334.60167969 -32.74929687 334.20335937 -31.58984375 333.79296875 C-21.80597678 330.3927267 -12.25594913 327.62366393 -2 326 C-0.93737442 325.82712463 0.12525116 325.65424927 1.22007751 325.47613525 C8.076877 324.63793643 15.01141634 324.84349805 21.90844727 324.83886719 C23.52073783 324.83423244 25.13302732 324.8292069 26.74531555 324.82382202 C31.10934577 324.81075751 35.47336065 324.8042645 39.83740735 324.79981136 C42.57065804 324.79687043 45.30390463 324.79276369 48.03715324 324.78830719 C56.60843083 324.77464666 65.17969893 324.76497348 73.75098664 324.7611053 C83.60859516 324.75663083 93.4660646 324.73910524 103.32363087 324.7101047 C110.9672783 324.68840667 118.61088684 324.67839667 126.2545647 324.67706418 C130.80844706 324.67602177 135.36219842 324.67023532 139.91604805 324.65224457 C144.20646495 324.63562317 148.49665435 324.63367569 152.78709221 324.64238358 C154.34982289 324.64314654 155.91256653 324.63891071 157.4752655 324.62892532 C174.15510895 324.52871146 191.15693951 326.23156294 204 338 C215.59174744 350.32510289 217.69877587 365.57623459 217.30859375 381.890625 C216.09891181 408.05187928 204.68193139 430.57456024 185.5625 448.25390625 C163.90272681 466.45809063 138.42150755 471.02613341 111 473 C111.72703125 473.52207031 112.4540625 474.04414062 113.203125 474.58203125 C148.45988249 500.39178577 170.25695366 538.37030846 180.63671875 580.58984375 C181.86416577 588.73322879 181.81915439 596.62508118 178 604 C173.74014978 609.04455947 169.50857538 611.94658896 163 613 C154.24433187 613.63588651 146.30887407 613.3513465 139.1875 607.8125 C135.27755811 602.78543185 132.93237555 597.24089718 131.12597656 591.16699219 C125.65665619 572.77949545 117.05464753 554.95411794 105 540 C103.84177734 538.49759766 103.84177734 538.49759766 102.66015625 536.96484375 C98.21567379 531.31997116 93.61791599 526.46527461 88 522 C87.06671875 521.23042969 86.1334375 520.46085938 85.171875 519.66796875 C68.5949136 506.23608481 48.45427841 496.72506398 28.63867188 489.09838867 C16.00703924 484.22983018 16.00703924 484.22983018 13 478 C9.96917567 470.71992951 9.91966294 462.35304751 12.4375 454.9375 C14.58956306 450.07262506 17.70962044 446.93845684 21.56640625 443.34765625 C26.54875484 438.54124934 30.77405463 432.98158326 34.91015625 427.44140625 C39.49131527 421.3097011 43.13019535 417.21410566 51 416 C60.71181241 415.40956904 69.68728836 416.62911109 79.1875 418.5 C89.34818612 420.33975307 99.26868822 421.4941798 109.625 421.5 C110.69516357 421.50580078 111.76532715 421.51160156 112.86791992 421.51757812 C128.41455978 421.27338367 142.41309857 416.31128529 153.7421875 405.4921875 C160.50710094 398.02503392 165.55129382 389.35536127 166.5703125 379.2578125 C166.65297363 378.45746582 166.73563477 377.65711914 166.82080078 376.83251953 C166.87993652 376.22778809 166.93907227 375.62305664 167 375 C146.80596115 375.03728128 126.61210953 375.09730951 106.41822052 375.18390274 C97.04036702 375.22359413 87.66259623 375.25603666 78.28466797 375.27099609 C70.10421336 375.2840642 61.92394151 375.31115929 53.74358988 375.35461307 C49.41815327 375.37711267 45.0929411 375.39291766 40.7674408 375.39188385 C36.68300305 375.39113036 32.59905923 375.40935286 28.51474953 375.44116783 C27.0282651 375.4495772 25.54172466 375.451479 24.05522728 375.44580269 C10.77601241 375.40191117 -2.48500893 377.34770999 -14.3125 383.75 C-14.97145264 384.09434082 -15.63040527 384.43868164 -16.30932617 384.79345703 C-30.94449295 392.63812047 -43.00974782 403.82470226 -53 417 C-53.80179687 418.04800781 -54.60359375 419.09601563 -55.4296875 420.17578125 C-71.74782627 441.97372527 -86.39490285 469.33254886 -83.5625 497.33203125 C-77.96075573 533.86007202 -52.52731185 565.30902269 -28.1640625 591.65625 C-25.64363091 594.3859593 -23.20455398 597.17868137 -20.76953125 599.984375 C-18.74885044 602.28607764 -16.68687382 604.54764379 -14.625 606.8125 C-9.8950242 612.0626931 -5.40758316 617.47751385 -1 623 C-0.18402344 624.00933594 0.63195312 625.01867187 1.47265625 626.05859375 C20.93820512 650.45270203 26.46745796 674.16487513 25.87548828 705.11743164 C25.79281322 712.36509034 26.70600879 718.11802636 29 725 C32.65088373 727.19053024 36.04030887 728.12423635 40.27234364 728.13422108 C41.14894888 728.13867892 42.02555412 728.14313676 42.92872316 728.14772969 C44.37441833 728.14745315 44.37441833 728.14745315 45.84931946 728.14717102 C46.87262098 728.15084771 47.8959225 728.1545244 48.95023316 728.1583125 C52.39561944 728.16936787 55.84097558 728.1731963 59.28637695 728.17700195 C61.74996029 728.18326511 64.21354268 728.18991178 66.67712402 728.19691467 C74.08122966 728.21615375 81.48532729 728.22674385 88.88945058 728.23564246 C92.37586273 728.24002581 95.86227336 728.24539244 99.34868431 728.25063133 C110.9372962 728.26764191 122.52590715 728.28213675 134.11452961 728.28938007 C137.1215191 728.29128997 140.12850858 728.29321031 143.13549805 728.29516602 C143.88287199 728.29564976 144.63024593 728.2961335 145.40026756 728.2966319 C157.51110803 728.30493477 169.6218498 728.33027674 181.73264716 728.36274669 C194.16516953 728.39580767 206.59764172 728.4138279 219.03020829 728.41702431 C226.0112474 728.41919016 232.99214253 728.42794967 239.97313881 728.45348549 C246.53863705 728.47744602 253.10392252 728.48102424 259.66947174 728.47072411 C262.08096109 728.47022716 264.49246294 728.47659409 266.9039135 728.49028015 C270.19283256 728.50790392 273.48081083 728.50093915 276.76972961 728.48774719 C278.20538654 728.50420106 278.20538654 728.50420106 279.67004663 728.52098733 C285.26539888 728.46670016 288.61561928 727.83181074 293 724 C296.34828117 718.3664121 296.41436708 713.29330886 296.37109375 706.8515625 C296.38849801 704.85546723 296.40608211 702.85937351 296.42382812 700.86328125 C296.433816 697.75924462 296.43751686 694.65532142 296.43579102 691.55126953 C296.46761376 665.07049979 302.8063031 646.82001153 317.57910156 625.05517578 C363.5435699 557.33158314 378.7911856 482.82156304 378.26428223 402.04803467 C378.24513879 398.54895879 378.24116058 395.04993475 378.23744583 391.55081367 C378.21774659 374.77400144 378.0380588 358.03962248 377.23144531 341.27954102 C376.85787409 333.31182415 376.7774693 325.34366838 376.75976562 317.36816406 C376.75333519 315.64416351 376.73984532 313.92017254 376.71875 312.19628906 C376.23642463 272.63053581 382.36126382 232.8787816 386.61410284 193.5979048 C387.4556382 185.82314352 388.29124847 178.04774865 389.12676001 170.27233815 C389.86194196 163.43273055 390.59874946 156.59329789 391.3359375 149.75390625 C391.41559974 149.01475873 391.49526197 148.2756112 391.57733822 147.51406527 C393.21750627 132.29995766 394.86642881 117.08716678 396.59082031 101.88232422 C396.71132311 100.81602122 396.8318259 99.74971823 396.9559803 98.65110302 C397.50082942 93.83256682 398.05029196 89.01467285 398.61044312 84.19789124 C398.79857991 82.54592899 398.98654929 80.89394766 399.17431641 79.24194336 C399.25944614 78.5283988 399.34457588 77.81485424 399.43228531 77.07968712 C400.55653704 67.06285486 400.72389154 58.61998307 394.4375 50.25 C390.70903374 46.20619082 386.28615503 44.30042791 381 43 C375.40306679 42.80361638 371.71810413 45.05419048 367.11328125 47.94140625 C361.67886183 53.23519374 360.29835106 60.0859603 359.44921875 67.3671875 C359.2731031 68.7262471 359.2731031 68.7262471 359.09342957 70.11276245 C358.71407617 73.07351519 358.3562852 76.03639019 358 79 C357.74772024 81.01995844 357.49461707 83.03981419 357.24072266 85.05957031 C356.40767971 91.7452534 355.60946113 98.43493629 354.8125 105.125 C354.51045752 107.64599832 354.20822156 110.16697347 353.9058075 112.68792725 C353.26569836 118.0280664 352.62707984 123.36838035 351.98983765 128.7088623 C351.1598951 135.66422811 350.32718894 142.61926023 349.49368191 149.57419968 C346.31141024 176.12776708 343.14538238 202.6831698 340.03124619 229.24482727 C339.64256192 232.55954419 339.25337694 235.87420196 338.86404419 239.18884277 C337.79030222 248.33301486 336.71809171 257.4773355 335.65802288 266.6231041 C335.23230551 270.28869425 334.80292099 273.95384841 334.37262917 277.61890411 C334.17740988 279.28905079 333.98382035 280.95938898 333.79205894 282.62993622 C330.71542271 309.42084423 330.71542271 309.42084423 323.03515625 315.57421875 C314.60541379 321.05276646 304.74397176 321.38044794 295.00390625 319.38671875 C288.81596631 317.24872428 285.06206713 313.78516003 282 308 C277.75291649 293.61530358 281.70767616 275.62894464 283.60546875 261.08203125 C283.88517108 258.86250886 284.16361687 256.64282782 284.44091797 254.42300415 C285.03464815 249.68583911 285.63532518 244.94963216 286.24179077 240.21408081 C287.69891196 228.83063614 289.11974095 217.44264136 290.54009438 206.05455971 C290.86869587 203.42031037 291.19771773 200.78611344 291.52715111 198.151968 C294.03494927 178.09543027 296.42388882 158.0272993 298.71875 137.9453125 C298.86661768 136.65203978 299.01448536 135.35876705 299.16683388 134.02630424 C300.59699822 121.50478584 302.01484021 108.98190078 303.42204857 96.45778275 C303.94132769 91.84451268 304.46451382 87.23169044 304.9883728 82.61893845 C305.34156642 79.49409326 305.68877495 76.36862485 306.03564453 73.24307251 C308.91378677 47.66224069 312.14419248 23.60897072 333 6 C351.45200208 -7.67703665 373.27484419 -10.21005116 395.68017578 -7.69970703 C412.66756567 -4.97101846 427.12033254 3.19705195 437.8125 16.75 C456.5547176 43.17015648 452.51244281 73.46756081 448.99965549 103.76492763 C448.56502901 107.53577178 448.14334472 111.30806542 447.7202301 115.08021545 C446.91153564 122.27395436 446.09274315 129.46650223 445.2696715 136.65860897 C443.64793153 150.83249105 442.04750999 165.00879929 440.44799471 179.18520403 C440.18375522 181.52591338 439.91908447 183.86657365 439.65433884 186.2072258 C436.99039125 209.77273787 434.45690089 233.34978368 432.03515625 256.94140625 C431.96020392 257.67047078 431.88525159 258.39953531 431.80802798 259.1506927 C431.31328315 263.96419038 430.82173843 268.77800328 430.33227539 273.59204102 C430.21113184 274.77901896 430.08998829 275.96599689 429.96517372 277.18894386 C428.41945861 292.07520841 428.41945861 292.07520841 427.8671875 307.01953125 C427.86623077 307.72486496 427.86527405 308.43019867 427.86428833 309.15690613 C427.86361599 310.63642466 427.86540312 312.11594633 427.86962891 313.59545898 C427.87490042 315.77139563 427.86969774 317.9471172 427.86328125 320.12304688 C427.85970731 328.2199027 428.08794127 336.27702706 428.49609375 344.36328125 C429.21059949 359.08181662 429.18732588 373.80642879 429.18530273 388.53857422 C429.18522189 391.74501232 429.19211636 394.95130626 429.20581055 398.15771484 C429.32283084 426.04365425 428.55157603 453.84158727 425.25 481.5625 C425.16763092 482.26583466 425.08526184 482.96916931 425.00039673 483.69381714 C417.1788281 549.8390911 393.93016987 607.45545537 356.19482422 662.08349609 C349.58272755 671.78764325 346.7215876 680.73083001 346.69140625 692.44140625 C346.66622613 694.26107063 346.64082843 696.08073202 346.61523438 697.90039062 C346.58669472 700.72142606 346.56263484 703.54240905 346.54370117 706.36352539 C346.37343803 727.66138616 344.36818405 747.01363403 328.97265625 763.12109375 C312.33738504 779.03440021 292.09688155 778.44305984 270.56225586 778.38818359 C267.88032472 778.39225307 265.19841847 778.39748948 262.51649475 778.40411377 C256.01240099 778.41739361 249.50841159 778.41459932 243.00431388 778.40587585 C237.71486335 778.39907751 232.42544189 778.39819183 227.13598824 778.4014473 C226.3807653 778.401907 225.62554236 778.40236669 224.84743388 778.40284032 C223.31282459 778.40379958 221.77821531 778.40477222 220.24360604 778.4057581 C205.8829605 778.41429499 191.52237258 778.40450433 177.1617365 778.388357 C164.85999277 778.37495263 152.55833399 778.37728618 140.2565918 778.39111328 C125.94283943 778.40719452 111.62913744 778.41347404 97.3153773 778.40427649 C95.78698354 778.40332092 94.25858977 778.40237781 92.730196 778.4014473 C91.97835317 778.40098447 91.22651034 778.40052164 90.4518844 778.40004479 C85.17294226 778.39746273 79.89403229 778.40180887 74.61509514 778.40888596 C68.17596347 778.41732938 61.7369414 778.41496131 55.29782217 778.39904372 C52.01726715 778.3911994 48.73693056 778.38963849 45.45637131 778.39799118 C41.88995951 778.40623231 38.32405497 778.39585356 34.75767517 778.38095093 C33.2242279 778.39098918 33.2242279 778.39098918 31.6598019 778.40123022 C16.82512527 778.2816258 3.39192112 773.51360469 -7.4375 763.1875 C-20.48584779 749.18748989 -24.03836331 732.36744156 -24.23828125 713.7421875 C-24.24719391 712.93906128 -24.25610657 712.13593506 -24.26528931 711.30847168 C-24.29466067 707.99603904 -24.31478841 704.6841503 -24.30541992 701.37158203 C-24.29414173 690.9033703 -24.77987913 682.38839072 -30 673 C-30.34458252 672.37512695 -30.68916504 671.75025391 -31.04418945 671.10644531 C-39.09094712 657.68079498 -50.7659591 646.24384258 -61.36328125 634.84765625 C-64.65322679 631.29451507 -67.85225598 627.67909397 -71 624 C-71.83015625 623.03707031 -72.6603125 622.07414063 -73.515625 621.08203125 C-105.77369737 583.48863972 -134.53468693 539.98849737 -134.3125 488.8125 C-134.31034485 488.13402008 -134.3081897 487.45554016 -134.30596924 486.75650024 C-134.19088379 464.11293908 -129.24164149 444.24675546 -119 424 C-118.49895752 423.00419922 -118.49895752 423.00419922 -117.98779297 421.98828125 C-110.16684723 406.53637226 -100.9330765 391.99181149 -89.36328125 379.05078125 C-88.54214844 378.12652344 -87.72101563 377.20226562 -86.875 376.25 C-86.12992188 375.45078125 -85.38484375 374.6515625 -84.6171875 373.828125 C-80.51955409 366.66221537 -83.52489757 355.24036409 -84.29418945 347.30541992 C-84.43454471 345.82509526 -84.57452545 344.34473506 -84.71416473 342.86434269 C-85.09549007 338.83306214 -85.48204483 334.80229817 -85.86952806 330.77160549 C-86.28287717 326.46242453 -86.69141964 322.15278769 -87.10050964 317.84320068 C-87.8016925 310.46307661 -88.50586372 303.08324267 -89.21191406 295.70358276 C-90.2227009 285.13750614 -91.2267825 274.57079979 -92.22928166 264.00393403 C-95.42059495 230.37014447 -98.62682511 196.73787642 -101.90062946 163.11200732 C-102.36887994 158.30098063 -102.83520727 153.48977086 -103.30012512 148.67842102 C-103.42660651 147.36949229 -103.5530879 146.06056356 -103.68340206 144.71197033 C-103.9314285 142.14385703 -104.17933865 139.57573249 -104.42712498 137.00759602 C-105.12826098 129.74936097 -105.83972544 122.49223886 -106.55946827 115.23582649 C-106.99893442 110.78163068 -107.42890539 106.32655415 -107.85637856 101.87119293 C-108.05010934 99.87242366 -108.24767372 97.87402058 -108.4498806 95.876091 C-109.51785455 85.3074998 -110.16911573 74.8280818 -110.20898438 64.20141602 C-110.21463661 63.21610114 -110.22028885 62.23078627 -110.22611237 61.21561337 C-110.12622407 41.97598223 -103.3966375 24.12184781 -89.65234375 10.484375 C-66.61169432 -11.09714641 -27.74788554 -15.26894616 0 0 Z M-77 13 C-77.77730469 13.57234375 -78.55460937 14.1446875 -79.35546875 14.734375 C-91.09474755 24.19045499 -98.65605901 39.23290613 -101 54 C-101.91430587 69.61434189 -100.31503399 85.19770267 -98.8046875 100.71875 C-98.57362629 103.16778919 -98.34341175 105.6169084 -98.11398315 108.06610107 C-97.50470402 114.54390417 -96.88340307 121.02049897 -96.25944519 127.49690247 C-95.67680124 133.55371269 -95.10527928 139.61157752 -94.53240299 145.66931772 C-91.77600475 174.80429304 -88.97486273 203.93534917 -86.07226562 233.05615234 C-83.19495897 261.9284274 -80.49291368 290.81748559 -77.77978516 319.70556641 C-77.18188292 326.07172057 -76.58067399 332.43755602 -75.9776001 338.80322266 C-75.59071073 342.8903851 -75.2056969 346.97772226 -74.8213501 351.06512451 C-74.65116886 352.87138911 -74.48025125 354.67758451 -74.30853271 356.48370361 C-74.07981774 358.89128116 -73.85395201 361.29910839 -73.62890625 363.70703125 C-73.50588135 365.0113208 -73.38285645 366.31561035 -73.25610352 367.65942383 C-73.17158936 368.76181396 -73.0870752 369.8642041 -73 371 C-72.92297852 371.90709717 -72.84595703 372.81419434 -72.76660156 373.7487793 C-73.06790867 376.65500612 -73.93358357 377.40896383 -76.10546875 379.3125 C-79.97446713 382.91410091 -83.13922849 386.78234207 -86.3125 391 C-86.87445068 391.74491699 -87.43640137 392.48983398 -88.01538086 393.25732422 C-89.69009793 395.49551306 -91.34943352 397.74395445 -93 400 C-93.6796582 400.9286084 -93.6796582 400.9286084 -94.37304688 401.87597656 C-105.99900158 417.98929899 -115.26386834 435.97381683 -121 455 C-121.32484375 456.06992187 -121.6496875 457.13984375 -121.984375 458.2421875 C-127.31067497 476.78374117 -127.26805235 500.40096023 -122 519 C-121.72591309 520.00087646 -121.72591309 520.00087646 -121.44628906 521.02197266 C-113.88307557 548.01482081 -98.8978982 571.92742309 -82 594 C-81.31357422 594.90274658 -81.31357422 594.90274658 -80.61328125 595.82373047 C-75.12142575 603.0250606 -69.42861017 609.90673548 -63.26953125 616.55078125 C-61.28619538 618.69114544 -59.35039811 620.85936908 -57.4375 623.0625 C-54.93003447 625.94900102 -52.38172631 628.79332584 -49.8125 631.625 C-15.75584533 669.45283449 -15.75584533 669.45283449 -15.69140625 693.171875 C-15.666239 694.90625326 -15.64084109 696.64062818 -15.61523438 698.375 C-15.58663532 701.05793323 -15.56256462 703.74080864 -15.54370117 706.42382812 C-15.38370458 725.53902585 -13.24489273 742.38032932 0.5859375 756.8125 C10.47200739 765.77075104 22.41263896 769.62325045 35.56149292 769.50793457 C36.67244548 769.51417453 37.78339804 769.5204145 38.92801583 769.52684355 C42.62264147 769.54270211 46.31660082 769.53019661 50.01123047 769.51757812 C52.67154849 769.52300247 55.33182177 769.52998312 57.99212646 769.53881836 C64.45140307 769.55654664 70.9104931 769.55278881 77.36977683 769.5411678 C82.62351829 769.53210965 87.8772077 769.53091974 93.13095474 769.53526306 C94.25543645 769.53618246 94.25543645 769.53618246 95.40263496 769.53712043 C96.92588759 769.53839943 98.44914021 769.53969628 99.97239281 769.5410108 C114.23579127 769.55240033 128.49908668 769.53932931 142.76246823 769.51780933 C154.97922966 769.49994714 167.19583898 769.50303833 179.41259766 769.52148438 C193.62417702 769.54293257 207.83566615 769.55129416 222.04725945 769.53903532 C223.56531086 769.53776123 225.08336229 769.53650374 226.60141373 769.53526306 C227.3481776 769.53464596 228.09494147 769.53402886 228.86433455 769.53339306 C234.10572392 769.52995143 239.34705568 769.53574292 244.58843613 769.54518127 C250.98480036 769.55644698 257.38096846 769.55326621 263.77731048 769.5320583 C267.03575374 769.52160762 270.29380682 769.51950709 273.55225754 769.53065491 C291.70886365 769.58702527 306.48768113 769.05894691 321 757 C336.37048357 741.37419279 337.42309397 723.23453375 337.5 702.5 C337.61038557 672.73909069 337.61038557 672.73909069 344.625 661.0625 C344.97272461 660.47879639 345.32044922 659.89509277 345.67871094 659.29370117 C348.73606916 654.24060533 352.11712764 649.41918988 355.51953125 644.59375 C389.80721729 595.44017164 409.57259259 539.50622492 416.25 480.0625 C416.3272229 479.38436249 416.4044458 478.70622498 416.48400879 478.00753784 C417.07851051 472.67880991 417.55958888 467.34352217 418 462 C418.08786774 460.94373413 418.17573547 459.88746826 418.26626587 458.79919434 C419.97476667 437.54455763 420.28370395 416.40950493 420.19561768 395.09790039 C420.18475645 391.78922875 420.18519313 388.48059762 420.18563175 385.17191124 C420.18502802 367.58360934 419.93984098 350.0486059 419.11129761 332.47662354 C417.99297315 307.59137447 420.00167989 283.26120364 422.62634277 258.53649902 C423.02692052 254.74520928 423.42095946 250.95326316 423.81347656 247.16113281 C428.54470319 201.49872143 433.67832492 155.88222447 438.8984375 110.2734375 C438.99138847 109.46109209 439.08433945 108.64874668 439.18010712 107.81178474 C439.44703128 105.48043974 439.71436883 103.14914265 439.98193359 100.81787109 C440.06602163 100.08442254 440.15010967 99.35097399 440.23674583 98.59529972 C440.67052687 94.82294777 441.11171043 91.05161722 441.5632019 87.28134155 C441.70078635 86.12847877 441.70078635 86.12847877 441.84115028 84.95232582 C442.01482019 83.50066817 442.18980118 82.04916648 442.36638451 80.59786034 C444.74341922 60.71846268 443.0277497 41.06963467 430.78369141 24.33789062 C420.9490717 11.92691936 406.95413895 2.89254317 391 1 C372.20084454 -0.22809527 356.40673958 1.30365544 341 13 C340.22269531 13.57234375 339.44539063 14.1446875 338.64453125 14.734375 C326.18536865 24.77032697 319.79060157 39.31953682 317.63671875 54.8359375 C317.44653923 56.1890226 317.44653923 56.1890226 317.2525177 57.56944275 C315.43393517 70.79122932 313.95957045 84.05741782 312.44454193 97.31666565 C312.00649398 101.14399111 311.56483179 104.97089956 311.12353516 108.79785156 C310.07863596 117.86480847 309.03863146 126.93232324 308 136 C307.85415466 137.27325134 307.70830933 138.54650269 307.55804443 139.8583374 C307.42077942 141.05670227 307.2835144 142.25506714 307.14208984 143.48974609 C302.48113593 184.17838333 297.61628614 224.83755517 292.35931396 265.45385742 C292.08442347 267.58018641 291.8110295 269.70670361 291.5378418 271.83325195 C291.16838056 274.70770194 290.79074398 277.58095809 290.40942383 280.45385742 C290.22204169 281.89109682 290.03478125 283.3283521 289.84765625 284.765625 C289.68015869 286.0330957 289.51266113 287.30056641 289.34008789 288.60644531 C288.70205725 294.97301096 288.8428384 300.80354801 293 306 C298.2569713 310.61587724 301.34611699 311.35332492 308.23828125 311.28125 C313.28517861 310.76728026 315.88826102 308.17350225 319.25 304.625 C323.43509689 298.34735467 323.74868758 291.16001343 324.5847168 283.84667969 C324.72982193 282.62223648 324.87492706 281.39779327 325.02442932 280.13624573 C325.42190817 276.77174652 325.8137192 273.40667605 326.20313239 270.04123974 C326.6195403 266.45501807 327.04342949 262.86968055 327.46650696 259.28424072 C328.2741593 252.43029858 329.07546645 245.57563055 329.87436658 238.72066331 C330.84304693 230.41086325 331.8186542 222.10188031 332.79492188 213.79296875 C333.14416777 210.82027333 333.49339608 207.84757584 333.84262085 204.87487793 C333.92884559 204.14100656 334.01507033 203.40713519 334.10390794 202.6510253 C334.62655122 198.2019664 335.14827991 193.75280132 335.66931713 189.30355406 C337.41804647 174.37211866 339.17863619 159.44229715 340.98388672 144.51757812 C341.06356127 143.85872824 341.14323582 143.19987836 341.22532475 142.52106333 C342.04401457 135.75364803 342.86618068 128.98666517 343.69230652 122.22015381 C345.81510489 104.79143201 347.77080163 87.34717301 349.60743046 69.88602448 C350.94688418 57.53309366 352.79452935 46.59435751 362.953125 38.32421875 C370.00510619 33.76196374 378.40476974 32.952531 386.50390625 34.46875 C393.46276515 36.25361763 399.2417994 39.21010604 403.53515625 45.109375 C411.15942208 58.00171955 409.02788 71.32741939 407.5 85.625 C407.32502571 87.29791521 407.1502292 88.97084903 406.97558594 90.64379883 C405.06973358 108.76627029 403.01744658 126.87320687 400.99347305 144.98278427 C398.23663727 169.65099871 395.54792015 194.32564431 392.9438324 219.01047134 C392.69272493 221.38802891 392.44068034 223.76548528 392.18835449 226.14291382 C391.17383727 235.71025586 390.18219574 245.27966008 389.21744537 254.85214996 C388.99852948 257.01452532 388.77645772 259.17655934 388.55389404 261.33856201 C386.81372512 278.32635608 385.53934497 295.17425751 385.71875 312.27099609 C385.75048962 315.29667475 385.75982005 318.32182555 385.765625 321.34765625 C385.80157048 330.4158273 385.98341915 339.45018687 386.49609375 348.50390625 C387.42474012 365.54166472 387.29256484 382.62961256 387.3125 399.6875 C387.31379787 400.60042061 387.31509575 401.51334122 387.31643295 402.45392609 C387.34589325 429.81342227 387.03493793 456.88448057 383 484 C382.81808105 485.28487305 382.63616211 486.56974609 382.44873047 487.89355469 C374.8745416 539.94495093 355.09893804 588.33466612 325.5078125 631.65234375 C321.3053157 637.82223875 317.23587416 644.02407588 313.625 650.5625 C313.01914062 651.65691406 312.41328125 652.75132812 311.7890625 653.87890625 C305.36427331 667.84513565 305.42954784 681.22270316 305.4375 696.3125 C305.43387418 699.54987057 305.42419588 702.78671084 305.39674377 706.02397156 C305.38014669 708.02293762 305.37692619 710.02207859 305.38975525 712.02107239 C305.33436088 719.38560579 304.35472375 725.90522022 299.8125 731.875 C293.06043962 736.97655673 286.4997046 737.43820419 278.33508301 737.38768005 C277.28441918 737.39306559 276.23375535 737.39845113 275.15125322 737.40399987 C271.64303283 737.41826718 268.13519039 737.41117857 264.62695312 737.40405273 C262.10676267 737.40975687 259.58657479 737.4167213 257.06639099 737.42485046 C250.93927217 737.44092874 244.81229212 737.44288384 238.68515861 737.43763756 C233.704 737.43359045 228.72287165 737.43504583 223.74171448 737.44038582 C223.03184034 737.44113424 222.32196621 737.44188266 221.59058073 737.44265376 C220.14832985 737.44418529 218.70607897 737.44572364 217.2638281 737.44726873 C203.75076732 737.46098433 190.23776449 737.45556239 176.72470504 737.44408352 C164.36979524 737.43414894 152.01503515 737.44709731 139.66014844 737.47101771 C126.96302163 737.4954149 114.26596453 737.50501526 101.56881475 737.49836498 C94.44472237 737.49487454 87.32074516 737.49709338 80.19667053 737.51461601 C73.49890083 737.53088635 66.80146281 737.52614686 60.10368538 737.50731087 C57.64627704 737.50362085 55.18884755 737.50674538 52.73145866 737.51719666 C49.37561398 737.53037906 46.02072076 737.51888222 42.66491699 737.50120544 C41.69370297 737.51081045 40.72248895 737.52041546 39.7218442 737.53031152 C33.66387861 737.46470478 29.05235112 736.46315082 24 733 C21.625 730.5 21.625 730.5 20 728 C19.64284912 727.46536133 19.28569824 726.93072266 18.91772461 726.37988281 C17.53607312 722.79692492 17.70148767 719.20992649 17.69140625 715.421875 C17.66620002 713.68489315 17.64080283 711.94791406 17.61523438 710.2109375 C17.58679977 707.49968531 17.56277066 704.78848266 17.54370117 702.07714844 C17.24433788 666.40357159 3.11046819 641.52873103 -21 616 C-22.77270954 614.00794911 -24.52001531 611.99623232 -26.265625 609.98046875 C-28.27264538 607.68866845 -30.32402851 605.44003248 -32.375 603.1875 C-36.27631384 598.8644225 -39.98182145 594.41513765 -43.63671875 589.8828125 C-45.65834019 587.41676849 -47.73411336 585.01252022 -49.83666992 582.61572266 C-72.5657237 556.48121332 -94.09439565 522.02711746 -93.2421875 486.234375 C-90.81942565 453.8787813 -73.58108488 423.5932557 -52 400 C-51.52304688 399.47776855 -51.04609375 398.95553711 -50.5546875 398.41748047 C-34.76456401 381.36604698 -13.20331859 368.0727798 10.51862717 366.81316376 C14.72248187 366.74048705 18.92219588 366.72925224 23.12646484 366.74121094 C24.73719439 366.73849644 26.3479227 366.73493295 27.95864868 366.73059082 C32.30532524 366.72152346 36.65190618 366.72498642 40.99858427 366.73134899 C45.55575018 366.73643315 50.11290822 366.73171133 54.67007446 366.72857666 C62.31440697 366.72494626 69.95870073 366.72971409 77.60302734 366.73925781 C86.44071111 366.75016396 95.27830275 366.74659742 104.11598432 366.735605 C111.71364582 366.72653357 119.31127957 366.72524544 126.90894473 366.73048234 C131.44284555 366.73359983 135.97670301 366.73401696 140.51060104 366.72740936 C144.76733351 366.72163782 149.02394678 366.72562923 153.28066635 366.73719788 C154.84317324 366.73984448 156.40569014 366.73907935 157.96819305 366.73467255 C160.09899763 366.72921623 162.22941889 366.73605171 164.36019897 366.74603271 C165.55291601 366.74678677 166.74563305 366.74754082 167.97449303 366.74831772 C170.91897684 366.99325994 172.60463146 367.29653574 175 369 C177.95149876 377.85449627 175.26811404 388.74787751 171.67578125 397.06640625 C170.22741675 399.79967153 168.6761146 402.40098773 167 405 C166.35611328 406.05960937 166.35611328 406.05960937 165.69921875 407.140625 C157.11158639 420.00940741 142.46523801 426.36390109 127.86621094 429.38037109 C121.50818394 430.39935774 115.2392118 430.4434378 108.8125 430.375 C108.14045532 430.37167664 107.46841064 430.36835327 106.77600098 430.3649292 C95.60538574 430.30039552 84.92727862 429.28580828 74 427 C61.9496754 424.03355329 61.9496754 424.03355329 50.10546875 425.88671875 C45.65960485 429.35386788 42.4683584 434.18010618 39.13061523 438.67626953 C35.20713173 443.90708763 30.83300338 448.63320202 26.29052734 453.33007812 C22.60795225 457.17530122 20.24192065 459.86303429 19.625 465.3125 C20.06847164 469.67330445 21.01306477 472.7998507 24 476 C29.73212802 479.53567954 36.15919206 481.94679431 42.39697266 484.43554688 C85.14716349 501.51038945 114.72502587 527.37245921 133.62646484 569.72509766 C136.20802551 575.8802798 138.35627652 582.1891097 140.32666016 588.56445312 C142.31831219 594.83333393 144.35938629 599.54931451 150.0078125 603.3515625 C155.26155287 605.06160348 160.44403033 604.74917058 165.375 602.375 C168.80303015 599.27344891 171.61208198 596.69264466 172.29931641 591.92236328 C172.4637845 584.5182249 170.53192637 578.40325141 168 571.5 C167.59209229 570.35942139 167.18418457 569.21884277 166.76391602 568.04370117 C163.29079519 558.48033746 159.46484978 549.14209852 155 540 C154.68208496 539.34499512 154.36416992 538.68999023 154.03662109 538.01513672 C146.77486877 523.25215267 137.37866992 510.81891608 126 499 C125.319375 498.24460937 124.63875 497.48921875 123.9375 496.7109375 C107.91597024 479.50030983 85.55518818 468.58584807 64 460 C65.43769224 460.12276922 66.87513174 460.24849414 68.3125 460.375 C69.33472656 460.46394531 70.35695313 460.55289062 71.41015625 460.64453125 C73.9016929 460.89124489 76.38896461 461.18360683 78.87109375 461.51171875 C111.50682213 465.7440827 145.40251341 464.95828207 173 445 C177.24570787 441.58164754 181.14545017 437.84900371 185 434 C186.11181641 432.90558594 186.11181641 432.90558594 187.24609375 431.7890625 C201.96693904 416.35082709 208.40810737 395.69805174 208.37084961 374.72631836 C208.06949444 362.80450625 204.42707792 353.60372066 196.15234375 345.1015625 C184.89006598 334.48860094 171.72728094 333.69860864 156.97143555 333.70947266 C155.34592889 333.70348118 153.72042506 333.69667422 152.09492493 333.68911743 C147.69342152 333.67150253 143.29199598 333.66676365 138.89046073 333.66548586 C136.13171131 333.66405991 133.37298139 333.65978169 130.61423683 333.65449142 C120.96375916 333.63599844 111.3133366 333.62781895 101.6628418 333.62939453 C92.71182095 333.63059224 83.76104267 333.60956097 74.81008309 333.5779072 C67.0933291 333.55160512 59.37665356 333.54103319 51.65985519 333.54230535 C47.06557133 333.54281138 42.47150266 333.53733117 37.87726402 333.51594925 C8.59969194 333.38924849 -16.77296055 335.97145179 -43 350 C-43.01673043 349.39270239 -43.03346087 348.78540478 -43.05069828 348.15970421 C-43.56037275 330.80961354 -44.89856303 313.62235763 -46.58984375 296.3515625 C-46.85423399 293.6059252 -47.11646489 290.86008275 -47.3787384 288.11424255 C-47.93546683 282.29621619 -48.49687167 276.47865813 -49.06164551 270.66140747 C-49.94808893 261.52947093 -50.82401168 252.39654043 -51.69824219 243.26342773 C-51.99460831 240.16843688 -52.29103886 237.07345219 -52.5874939 233.97846985 C-52.6610299 233.21068748 -52.7345659 232.44290511 -52.81033027 231.6518566 C-53.33217985 226.20454448 -53.85530151 220.75735544 -54.37905884 215.31022644 C-56.98590657 188.19630939 -59.56043219 161.07948207 -62.10256958 133.95941162 C-62.63439182 128.28802681 -63.17007792 122.61701452 -63.70682049 116.94609356 C-64.10528848 112.72856002 -64.5008124 108.51075427 -64.89548302 104.29286385 C-65.07516806 102.37815648 -65.25595577 100.46355216 -65.43802834 98.54907036 C-66.30730406 89.40033304 -67.10749269 80.25399812 -67.65722656 71.07983398 C-67.70372723 70.34651635 -67.75022789 69.61319872 -67.79813766 68.85765934 C-68.35033333 58.79850055 -66.28662608 49.96346178 -59.625 42.25 C-52.25909503 35.93636717 -45.58016334 33.47488652 -35.90625 33.6875 C-27.87042608 34.55156709 -20.21330972 37.68413653 -15 44 C-7.18776933 55.66626446 -7.45049037 70.65222533 -6.265625 84.21484375 C-6.10598562 86.00329467 -5.94595162 87.7917104 -5.78555298 89.58009338 C-5.35716615 94.36992812 -4.9345444 99.16025483 -4.51320648 103.95071411 C-4.0692809 108.98824452 -3.62043559 114.02533706 -3.17236328 119.0625 C-2.27363199 129.17733078 -1.38174356 139.29275564 -0.49206543 149.40838623 C-0.04199726 154.52514752 0.4098606 159.64174912 0.86230469 164.75830078 C1.56017673 172.65314451 2.25441278 180.54830168 2.9450798 188.44377899 C3.06499895 189.81427702 3.18502708 191.18476552 3.30516434 192.55524445 C4.73848875 208.90721594 6.11249392 225.26246475 7.3950119 241.62700272 C7.59625603 244.18920392 7.79896951 246.75128424 8.0022583 249.31332397 C8.06866768 250.15053167 8.13507706 250.98773937 8.20349884 251.850317 C8.33670778 253.52926845 8.4699828 255.20821465 8.60332489 256.88715553 C8.98966867 261.76564248 9.36495268 266.64482082 9.73173237 271.52481556 C9.96030091 274.53519581 10.19846674 277.54476377 10.43905449 280.55420494 C10.54831814 281.94718155 10.65348872 283.34048648 10.75416756 284.73410988 C11.20897055 296.44437509 11.20897055 296.44437509 16.44792175 306.54536438 C21.46419299 310.87053715 24.79262351 311.33965217 31.234375 311.2890625 C35.03323384 310.89200663 37.15489962 309.48946283 40 307 C40.5775 306.54625 41.155 306.0925 41.75 305.625 C45.30697483 301.00093273 45.19705779 295.82639258 44.73046875 290.28125 C44.6771489 289.53903198 44.62382904 288.79681396 44.56889343 288.03210449 C44.39476457 285.68653598 44.20077607 283.34342843 44 281 C43.93911194 280.27941406 43.87822388 279.55882812 43.81549072 278.81640625 C43.42283489 274.24353402 42.99504869 269.67429831 42.5597229 265.10531616 C40.77547042 246.30227717 39.20060897 227.48328251 37.67501831 208.65786743 C35.16490528 177.69167949 32.54519834 146.73542652 29.85531616 115.78433228 C29.45336208 111.15913557 29.05321437 106.53378845 28.6546936 101.90829468 C28.18116948 96.41436168 27.70362651 90.92079204 27.22305489 85.42747116 C27.04591823 83.39614409 26.87004757 81.36470615 26.69556999 79.33314896 C23.95475573 44.16556519 23.95475573 44.16556519 4.85546875 15.3203125 C-18.43825945 -3.60783326 -52.86099133 -5.32562699 -77 13 Z " fill="#FCFEFD" transform="translate(265,56)"/>
<path d="M0 0 C0.86890869 -0.00191345 1.73781738 -0.0038269 2.63305664 -0.00579834 C4.46533499 -0.00715589 6.29762309 -0.00348955 8.12988281 0.00488281 C10.927955 0.01558848 13.72538519 0.00497298 16.5234375 -0.0078125 C18.30729308 -0.00649083 20.09114826 -0.00392828 21.875 0 C22.70845947 -0.00404846 23.54191895 -0.00809692 24.40063477 -0.01226807 C32.58514976 0.05351912 32.58514976 0.05351912 35.9375 2.265625 C40.94396843 12.55413881 36.30017063 27.21882025 34.4375 37.953125 C34.20908567 39.30915231 33.98121899 40.66527197 33.75390625 42.02148438 C32.08824994 51.81337519 32.08824994 51.81337519 30.9375 55.265625 C42.8175 55.265625 54.6975 55.265625 66.9375 55.265625 C67.34742188 52.49414062 67.75734375 49.72265625 68.1796875 46.8671875 C68.58289481 44.15306764 68.98696374 41.43907735 69.39111328 38.72509766 C69.66935627 36.85348633 69.94671759 34.98174369 70.22314453 33.10986328 C70.622948 30.40361235 71.02602674 27.69786545 71.4296875 24.9921875 C71.5506076 24.16884918 71.67152771 23.34551086 71.79611206 22.4972229 C72.15808885 20.08328467 72.54122712 17.67416348 72.9375 15.265625 C73.08060608 14.37816589 73.22371216 13.49070679 73.37115479 12.57635498 C73.60533112 11.25537811 73.60533112 11.25537811 73.84423828 9.90771484 C73.98145294 9.11376312 74.1186676 8.3198114 74.26004028 7.50180054 C75.06359038 4.84942282 76.03036887 3.2756142 77.9375 1.265625 C81.99002063 -0.28184823 86.39881417 0.10349429 90.68359375 0.09765625 C91.53172134 0.09432785 92.37984894 0.09099945 93.25367737 0.08757019 C95.04484516 0.08251484 96.83602234 0.08016143 98.62719727 0.08032227 C101.36164917 0.07813568 104.09569755 0.05996507 106.83007812 0.04101562 C108.57291529 0.0380814 110.31575437 0.0360968 112.05859375 0.03515625 C112.8733165 0.02797073 113.68803925 0.02078522 114.52745056 0.01338196 C118.72320445 0.03020076 122.19594026 0.12611308 125.9375 2.265625 C130.71185848 12.03135826 126.53534661 25.72636117 124.78076172 35.89892578 C124.43201331 37.9224603 124.09234349 39.94737398 123.75390625 41.97265625 C122.08330676 51.82820472 122.08330676 51.82820472 120.9375 55.265625 C122.35228638 55.24991455 122.35228638 55.24991455 123.7956543 55.23388672 C127.30870018 55.19971859 130.8215684 55.1746842 134.3347168 55.15576172 C135.85264886 55.14572955 137.37056173 55.13210062 138.88842773 55.11474609 C141.0754064 55.09037465 143.26212864 55.07911405 145.44921875 55.0703125 C146.76365967 55.05983887 148.07810059 55.04936523 149.43237305 55.03857422 C152.79047544 55.25610122 155.00070681 55.65396606 157.9375 57.265625 C162.56000431 66.93459112 158.60246028 80.22353625 157.0625 90.390625 C156.90120605 91.4938208 156.73991211 92.5970166 156.57373047 93.73364258 C156.40760254 94.7780249 156.24147461 95.82240723 156.0703125 96.8984375 C155.85205811 98.30440186 155.85205811 98.30440186 155.62939453 99.73876953 C154.85212095 102.57743628 153.98672495 104.15800399 151.9375 106.265625 C148.22403396 107.8753318 143.88805307 107.49234987 139.890625 107.58203125 C139.11942322 107.60281235 138.34822144 107.62359344 137.5536499 107.64500427 C135.09835428 107.71021072 132.64295479 107.76924984 130.1875 107.828125 C128.51952065 107.87133774 126.85155168 107.9149529 125.18359375 107.95898438 C121.10166804 108.06586236 117.01963818 108.16721066 112.9375 108.265625 C112.76359741 109.38590088 112.76359741 109.38590088 112.58618164 110.52880859 C112.06089923 113.8999614 111.53051539 117.27029192 111 120.640625 C110.81759766 121.81625 110.63519531 122.991875 110.44726562 124.203125 C110.27001953 125.32460937 110.09277344 126.44609375 109.91015625 127.6015625 C109.74781494 128.63845215 109.58547363 129.6753418 109.41821289 130.74365234 C108.9375 133.265625 108.9375 133.265625 107.9375 135.265625 C109.53404419 135.24991455 109.53404419 135.24991455 111.1628418 135.23388672 C115.12309386 135.19760424 119.0833313 135.17469455 123.04370117 135.15576172 C124.75564039 135.14572292 126.46756255 135.13208905 128.17944336 135.11474609 C130.64441142 135.09040427 133.10915215 135.07912062 135.57421875 135.0703125 C136.71669319 135.05482864 136.71669319 135.05482864 137.88224792 135.03903198 C141.99392118 135.03816976 145.29305459 135.27742845 148.9375 137.265625 C153.33552215 146.0616693 149.55895207 161.46266637 148.125 170.640625 C147.9597583 171.72802979 147.7945166 172.81543457 147.62426758 173.93579102 C147.45306396 174.95987061 147.28186035 175.9839502 147.10546875 177.0390625 C146.95360107 177.95091309 146.8017334 178.86276367 146.64526367 179.80224609 C145.85237166 182.56191509 144.88795099 184.16858787 142.9375 186.265625 C140.25422606 187.16004965 138.59600261 187.41144187 135.83325195 187.47094727 C135.01262772 187.49089249 134.19200348 187.51083771 133.34651184 187.53138733 C132.0245002 187.55645607 132.0245002 187.55645607 130.67578125 187.58203125 C129.76998825 187.60281235 128.86419525 187.62359344 127.93095398 187.64500427 C125.03737984 187.71039058 122.14371493 187.76933404 119.25 187.828125 C117.28840207 187.8713206 115.32681332 187.91493523 113.36523438 187.95898438 C108.55608261 188.06606082 103.74683954 188.16735914 98.9375 188.265625 C98.79715584 189.1509919 98.79715584 189.1509919 98.65397644 190.054245 C97.67691243 196.20453147 96.68493933 202.35228117 95.68432617 208.4987793 C95.31299121 210.79210903 94.94544514 213.08605564 94.58178711 215.38061523 C94.05800531 218.68122662 93.5205777 221.97936986 92.98046875 225.27734375 C92.82096237 226.30147873 92.66145599 227.32561371 92.49711609 228.38078308 C90.92740758 237.80867091 90.92740758 237.80867091 87.9375 241.265625 C83.77738777 242.63007663 79.52372893 242.42769093 75.19140625 242.43359375 C74.34327866 242.43692215 73.49515106 242.44025055 72.62132263 242.44367981 C70.83015484 242.44873516 69.03897766 242.45108857 67.24780273 242.45092773 C64.51335083 242.45311432 61.77930245 242.47128493 59.04492188 242.49023438 C57.30208471 242.4931686 55.55924563 242.4951532 53.81640625 242.49609375 C53.0016835 242.50327927 52.18696075 242.51046478 51.34754944 242.51786804 C47.134847 242.5009813 43.72057177 242.35843705 39.9375 240.265625 C35.12477869 230.64018237 40.05935914 213.84807253 41.9375 203.765625 C42.9275 198.320625 43.9175 192.875625 44.9375 187.265625 C33.0575 187.265625 21.1775 187.265625 8.9375 187.265625 C8.3496875 191.596875 8.3496875 191.596875 7.75 196.015625 C6.46385725 205.12438527 5.00083622 214.20051585 3.4375 223.265625 C3.23616455 224.47573242 3.0348291 225.68583984 2.82739258 226.93261719 C2.5261145 228.64433105 2.5261145 228.64433105 2.21875 230.390625 C2.04408203 231.40382813 1.86941406 232.41703125 1.68945312 233.4609375 C0.86056515 236.55258199 -0.12376835 238.71692982 -2.0625 241.265625 C-4.76235665 242.18013672 -7.27263535 242.39855116 -10.10913086 242.42675781 C-10.89352036 242.43636536 -11.67790985 242.4459729 -12.48606873 242.45587158 C-13.32468948 242.46012146 -14.16331024 242.46437134 -15.02734375 242.46875 C-15.89766739 242.47445007 -16.76799103 242.48015015 -17.66468811 242.48602295 C-19.50292755 242.49545515 -21.34118377 242.50199985 -23.17944336 242.50585938 C-25.98646528 242.51557814 -28.79275875 242.5466233 -31.59960938 242.578125 C-33.3880165 242.58465434 -35.17642884 242.58990508 -36.96484375 242.59375 C-37.80144028 242.6060968 -38.6380368 242.6184436 -39.49998474 242.63116455 C-44.14475362 242.61346465 -47.34305235 242.37525994 -51.0625 239.265625 C-54.42531572 229.17717784 -50.75446891 216.85489367 -49.0625 206.640625 C-48.77271872 204.85558529 -48.48365002 203.07042974 -48.1953125 201.28515625 C-47.49259029 196.94393233 -46.78021974 192.60439356 -46.0625 188.265625 C-46.91481201 188.25104248 -47.76712402 188.23645996 -48.64526367 188.22143555 C-51.82321175 188.16019215 -55.00052546 188.08600471 -58.17797852 188.00317383 C-59.55025958 187.97002694 -60.92267362 187.94196329 -62.29516602 187.91918945 C-64.27387766 187.88545734 -66.25221376 187.8316101 -68.23046875 187.77734375 C-69.41922607 187.75115967 -70.6079834 187.72497559 -71.83276367 187.69799805 C-75.36650758 187.22492673 -77.29141399 186.49497589 -80.0625 184.265625 C-83.34039092 176.26156586 -80.43067868 165.77710786 -79.09106445 157.56176758 C-78.74822886 155.44217486 -78.42542759 153.32012471 -78.10351562 151.19726562 C-77.88662072 149.83834894 -77.66856309 148.47961722 -77.44921875 147.12109375 C-77.25545654 145.90059326 -77.06169434 144.68009277 -76.86206055 143.42260742 C-76.05608747 140.24030579 -75.39143809 138.55354261 -73.0625 136.265625 C-69.44799493 134.69497512 -65.33429048 135.13940044 -61.453125 135.16796875 C-60.72631531 135.1693837 -59.99950562 135.17079865 -59.25067139 135.17225647 C-56.93790506 135.17783708 -54.62523688 135.19038596 -52.3125 135.203125 C-50.74088682 135.20814251 -49.16927211 135.21270498 -47.59765625 135.21679688 C-43.75256657 135.22780015 -39.9075499 135.24505139 -36.0625 135.265625 C-36.02511719 134.50121094 -35.98773438 133.73679687 -35.94921875 132.94921875 C-35.40954207 124.1556634 -33.95081914 115.85213277 -32.0625 107.265625 C-33.18744873 107.28133545 -34.31239746 107.2970459 -35.47143555 107.31323242 C-39.65528165 107.36763716 -43.83909662 107.40201336 -48.02319336 107.43041992 C-49.83216617 107.44548255 -51.6411026 107.46593677 -53.44995117 107.49194336 C-56.05396515 107.5284382 -58.6574952 107.54537657 -61.26171875 107.55859375 C-62.06711594 107.57407761 -62.87251312 107.58956146 -63.70231628 107.60551453 C-68.302035 107.60688519 -71.34401425 107.28831212 -75.0625 104.265625 C-78.36762934 94.94547355 -74.67061989 82.120758 -73.125 72.640625 C-72.95524658 71.58512451 -72.78549316 70.52962402 -72.6105957 69.44213867 C-72.35669067 67.94324097 -72.35669067 67.94324097 -72.09765625 66.4140625 C-71.9469165 65.51864746 -71.79617676 64.62323242 -71.64086914 63.70068359 C-71.04478668 61.1910481 -70.53279014 59.39036829 -69.0625 57.265625 C-64.59555111 54.54717213 -59.66215128 55.010385 -54.60546875 55.0703125 C-53.70250565 55.0731424 -52.79954254 55.07597229 -51.86921692 55.07888794 C-48.99600766 55.09004893 -46.12311445 55.11514603 -43.25 55.140625 C-41.29753056 55.15066007 -39.34505621 55.159785 -37.39257812 55.16796875 C-32.61576434 55.18997492 -27.83918569 55.22447669 -23.0625 55.265625 C-23.02439209 54.61980469 -22.98628418 53.97398437 -22.94702148 53.30859375 C-22.31838268 44.37474261 -20.97794481 35.60225653 -19.53344727 26.77197266 C-19.12143844 24.24377028 -18.72153364 21.7138359 -18.32226562 19.18359375 C-18.06061979 17.56498697 -17.79827562 15.94649289 -17.53515625 14.328125 C-17.4173732 13.57708496 -17.29959015 12.82604492 -17.17823792 12.05224609 C-15.97202911 4.80198693 -15.97202911 4.80198693 -14.0625 2.265625 C-9.67687646 -0.36200428 -4.95488305 -0.02406794 0 0 Z M22.9375 107.265625 C21.69992032 111.59715387 20.6792154 115.20125318 20.0859375 119.54296875 C19.96911621 120.37820068 19.85229492 121.21343262 19.73193359 122.07397461 C19.59352051 123.10659424 19.45510742 124.13921387 19.3125 125.203125 C18.85875 128.52375 18.405 131.844375 17.9375 135.265625 C29.8175 135.265625 41.6975 135.265625 53.9375 135.265625 C54.5975 131.57375 55.2575 127.881875 55.9375 124.078125 C56.14632812 122.9228833 56.35515625 121.7676416 56.5703125 120.57739258 C56.73273438 119.65595459 56.89515625 118.7345166 57.0625 117.78515625 C57.23007812 116.84776611 57.39765625 115.91037598 57.5703125 114.94458008 C58.05066174 111.89067777 58.05066174 111.89067777 57.9375 107.265625 C46.3875 107.265625 34.8375 107.265625 22.9375 107.265625 Z " fill="#17DE4E" transform="translate(400.0625,127.734375)"/>
<path d="M0 0 C0.86890869 -0.00191345 1.73781738 -0.0038269 2.63305664 -0.00579834 C4.46533499 -0.00715589 6.29762309 -0.00348955 8.12988281 0.00488281 C10.927955 0.01558848 13.72538519 0.00497298 16.5234375 -0.0078125 C18.30729308 -0.00649083 20.09114826 -0.00392828 21.875 0 C22.70845947 -0.00404846 23.54191895 -0.00809692 24.40063477 -0.01226807 C32.58514976 0.05351912 32.58514976 0.05351912 35.9375 2.265625 C40.94396843 12.55413881 36.30017063 27.21882025 34.4375 37.953125 C34.20908567 39.30915231 33.98121899 40.66527197 33.75390625 42.02148438 C32.08824994 51.81337519 32.08824994 51.81337519 30.9375 55.265625 C42.8175 55.265625 54.6975 55.265625 66.9375 55.265625 C67.34742188 52.49414062 67.75734375 49.72265625 68.1796875 46.8671875 C68.58289481 44.15306764 68.98696374 41.43907735 69.39111328 38.72509766 C69.66935627 36.85348633 69.94671759 34.98174369 70.22314453 33.10986328 C70.622948 30.40361235 71.02602674 27.69786545 71.4296875 24.9921875 C71.5506076 24.16884918 71.67152771 23.34551086 71.79611206 22.4972229 C72.15808885 20.08328467 72.54122712 17.67416348 72.9375 15.265625 C73.08060608 14.37816589 73.22371216 13.49070679 73.37115479 12.57635498 C73.60533112 11.25537811 73.60533112 11.25537811 73.84423828 9.90771484 C73.98145294 9.11376312 74.1186676 8.3198114 74.26004028 7.50180054 C75.06359038 4.84942282 76.03036887 3.2756142 77.9375 1.265625 C81.99002063 -0.28184823 86.39881417 0.10349429 90.68359375 0.09765625 C91.53172134 0.09432785 92.37984894 0.09099945 93.25367737 0.08757019 C95.04484516 0.08251484 96.83602234 0.08016143 98.62719727 0.08032227 C101.36164917 0.07813568 104.09569755 0.05996507 106.83007812 0.04101562 C108.57291529 0.0380814 110.31575437 0.0360968 112.05859375 0.03515625 C112.8733165 0.02797073 113.68803925 0.02078522 114.52745056 0.01338196 C118.72320445 0.03020076 122.19594026 0.12611308 125.9375 2.265625 C130.71185848 12.03135826 126.53534661 25.72636117 124.78076172 35.89892578 C124.43201331 37.9224603 124.09234349 39.94737398 123.75390625 41.97265625 C122.08330676 51.82820472 122.08330676 51.82820472 120.9375 55.265625 C122.35228638 55.24991455 122.35228638 55.24991455 123.7956543 55.23388672 C127.30870018 55.19971859 130.8215684 55.1746842 134.3347168 55.15576172 C135.85264886 55.14572955 137.37056173 55.13210062 138.88842773 55.11474609 C141.0754064 55.09037465 143.26212864 55.07911405 145.44921875 55.0703125 C146.76365967 55.05983887 148.07810059 55.04936523 149.43237305 55.03857422 C152.79047544 55.25610122 155.00070681 55.65396606 157.9375 57.265625 C162.56000431 66.93459112 158.60246028 80.22353625 157.0625 90.390625 C156.90120605 91.4938208 156.73991211 92.5970166 156.57373047 93.73364258 C156.40760254 94.7780249 156.24147461 95.82240723 156.0703125 96.8984375 C155.85205811 98.30440186 155.85205811 98.30440186 155.62939453 99.73876953 C154.85212095 102.57743628 153.98672495 104.15800399 151.9375 106.265625 C148.22403396 107.8753318 143.88805307 107.49234987 139.890625 107.58203125 C139.11942322 107.60281235 138.34822144 107.62359344 137.5536499 107.64500427 C135.09835428 107.71021072 132.64295479 107.76924984 130.1875 107.828125 C128.51952065 107.87133774 126.85155168 107.9149529 125.18359375 107.95898438 C121.10166804 108.06586236 117.01963818 108.16721066 112.9375 108.265625 C112.76359741 109.38590088 112.76359741 109.38590088 112.58618164 110.52880859 C112.06089923 113.8999614 111.53051539 117.27029192 111 120.640625 C110.81759766 121.81625 110.63519531 122.991875 110.44726562 124.203125 C110.27001953 125.32460937 110.09277344 126.44609375 109.91015625 127.6015625 C109.74781494 128.63845215 109.58547363 129.6753418 109.41821289 130.74365234 C108.9375 133.265625 108.9375 133.265625 107.9375 135.265625 C109.53404419 135.24991455 109.53404419 135.24991455 111.1628418 135.23388672 C115.12309386 135.19760424 119.0833313 135.17469455 123.04370117 135.15576172 C124.75564039 135.14572292 126.46756255 135.13208905 128.17944336 135.11474609 C130.64441142 135.09040427 133.10915215 135.07912062 135.57421875 135.0703125 C136.71669319 135.05482864 136.71669319 135.05482864 137.88224792 135.03903198 C141.99392118 135.03816976 145.29305459 135.27742845 148.9375 137.265625 C153.33552215 146.0616693 149.55895207 161.46266637 148.125 170.640625 C147.9597583 171.72802979 147.7945166 172.81543457 147.62426758 173.93579102 C147.45306396 174.95987061 147.28186035 175.9839502 147.10546875 177.0390625 C146.95360107 177.95091309 146.8017334 178.86276367 146.64526367 179.80224609 C145.85237166 182.56191509 144.88795099 184.16858787 142.9375 186.265625 C140.25422606 187.16004965 138.59600261 187.41144187 135.83325195 187.47094727 C135.01262772 187.49089249 134.19200348 187.51083771 133.34651184 187.53138733 C132.0245002 187.55645607 132.0245002 187.55645607 130.67578125 187.58203125 C129.76998825 187.60281235 128.86419525 187.62359344 127.93095398 187.64500427 C125.03737984 187.71039058 122.14371493 187.76933404 119.25 187.828125 C117.28840207 187.8713206 115.32681332 187.91493523 113.36523438 187.95898438 C108.55608261 188.06606082 103.74683954 188.16735914 98.9375 188.265625 C98.79715584 189.1509919 98.79715584 189.1509919 98.65397644 190.054245 C97.67691243 196.20453147 96.68493933 202.35228117 95.68432617 208.4987793 C95.31299121 210.79210903 94.94544514 213.08605564 94.58178711 215.38061523 C94.05800531 218.68122662 93.5205777 221.97936986 92.98046875 225.27734375 C92.82096237 226.30147873 92.66145599 227.32561371 92.49711609 228.38078308 C90.92740758 237.80867091 90.92740758 237.80867091 87.9375 241.265625 C83.77738777 242.63007663 79.52372893 242.42769093 75.19140625 242.43359375 C74.34327866 242.43692215 73.49515106 242.44025055 72.62132263 242.44367981 C70.83015484 242.44873516 69.03897766 242.45108857 67.24780273 242.45092773 C64.51335083 242.45311432 61.77930245 242.47128493 59.04492188 242.49023438 C57.30208471 242.4931686 55.55924563 242.4951532 53.81640625 242.49609375 C53.0016835 242.50327927 52.18696075 242.51046478 51.34754944 242.51786804 C47.134847 242.5009813 43.72057177 242.35843705 39.9375 240.265625 C35.12477869 230.64018237 40.05935914 213.84807253 41.9375 203.765625 C42.9275 198.320625 43.9175 192.875625 44.9375 187.265625 C33.0575 187.265625 21.1775 187.265625 8.9375 187.265625 C8.3496875 191.596875 8.3496875 191.596875 7.75 196.015625 C6.46385725 205.12438527 5.00083622 214.20051585 3.4375 223.265625 C3.23616455 224.47573242 3.0348291 225.68583984 2.82739258 226.93261719 C2.5261145 228.64433105 2.5261145 228.64433105 2.21875 230.390625 C2.04408203 231.40382813 1.86941406 232.41703125 1.68945312 233.4609375 C0.86056515 236.55258199 -0.12376835 238.71692982 -2.0625 241.265625 C-4.76235665 242.18013672 -7.27263535 242.39855116 -10.10913086 242.42675781 C-10.89352036 242.43636536 -11.67790985 242.4459729 -12.48606873 242.45587158 C-13.32468948 242.46012146 -14.16331024 242.46437134 -15.02734375 242.46875 C-15.89766739 242.47445007 -16.76799103 242.48015015 -17.66468811 242.48602295 C-19.50292755 242.49545515 -21.34118377 242.50199985 -23.17944336 242.50585938 C-25.98646528 242.51557814 -28.79275875 242.5466233 -31.59960938 242.578125 C-33.3880165 242.58465434 -35.17642884 242.58990508 -36.96484375 242.59375 C-37.80144028 242.6060968 -38.6380368 242.6184436 -39.49998474 242.63116455 C-44.14475362 242.61346465 -47.34305235 242.37525994 -51.0625 239.265625 C-54.42531572 229.17717784 -50.75446891 216.85489367 -49.0625 206.640625 C-48.77271872 204.85558529 -48.48365002 203.07042974 -48.1953125 201.28515625 C-47.49259029 196.94393233 -46.78021974 192.60439356 -46.0625 188.265625 C-46.91481201 188.25104248 -47.76712402 188.23645996 -48.64526367 188.22143555 C-51.82321175 188.16019215 -55.00052546 188.08600471 -58.17797852 188.00317383 C-59.55025958 187.97002694 -60.92267362 187.94196329 -62.29516602 187.91918945 C-64.27387766 187.88545734 -66.25221376 187.8316101 -68.23046875 187.77734375 C-69.41922607 187.75115967 -70.6079834 187.72497559 -71.83276367 187.69799805 C-75.36650758 187.22492673 -77.29141399 186.49497589 -80.0625 184.265625 C-83.34039092 176.26156586 -80.43067868 165.77710786 -79.09106445 157.56176758 C-78.74822886 155.44217486 -78.42542759 153.32012471 -78.10351562 151.19726562 C-77.88662072 149.83834894 -77.66856309 148.47961722 -77.44921875 147.12109375 C-77.25545654 145.90059326 -77.06169434 144.68009277 -76.86206055 143.42260742 C-76.05608747 140.24030579 -75.39143809 138.55354261 -73.0625 136.265625 C-69.44799493 134.69497512 -65.33429048 135.13940044 -61.453125 135.16796875 C-60.72631531 135.1693837 -59.99950562 135.17079865 -59.25067139 135.17225647 C-56.93790506 135.17783708 -54.62523688 135.19038596 -52.3125 135.203125 C-50.74088682 135.20814251 -49.16927211 135.21270498 -47.59765625 135.21679688 C-43.75256657 135.22780015 -39.9075499 135.24505139 -36.0625 135.265625 C-36.02511719 134.50121094 -35.98773438 133.73679687 -35.94921875 132.94921875 C-35.40954207 124.1556634 -33.95081914 115.85213277 -32.0625 107.265625 C-33.18744873 107.28133545 -34.31239746 107.2970459 -35.47143555 107.31323242 C-39.65528165 107.36763716 -43.83909662 107.40201336 -48.02319336 107.43041992 C-49.83216617 107.44548255 -51.6411026 107.46593677 -53.44995117 107.49194336 C-56.05396515 107.5284382 -58.6574952 107.54537657 -61.26171875 107.55859375 C-62.06711594 107.57407761 -62.87251312 107.58956146 -63.70231628 107.60551453 C-68.302035 107.60688519 -71.34401425 107.28831212 -75.0625 104.265625 C-78.36762934 94.94547355 -74.67061989 82.120758 -73.125 72.640625 C-72.95524658 71.58512451 -72.78549316 70.52962402 -72.6105957 69.44213867 C-72.35669067 67.94324097 -72.35669067 67.94324097 -72.09765625 66.4140625 C-71.9469165 65.51864746 -71.79617676 64.62323242 -71.64086914 63.70068359 C-71.04478668 61.1910481 -70.53279014 59.39036829 -69.0625 57.265625 C-64.59555111 54.54717213 -59.66215128 55.010385 -54.60546875 55.0703125 C-53.70250565 55.0731424 -52.79954254 55.07597229 -51.86921692 55.07888794 C-48.99600766 55.09004893 -46.12311445 55.11514603 -43.25 55.140625 C-41.29753056 55.15066007 -39.34505621 55.159785 -37.39257812 55.16796875 C-32.61576434 55.18997492 -27.83918569 55.22447669 -23.0625 55.265625 C-23.02439209 54.61980469 -22.98628418 53.97398437 -22.94702148 53.30859375 C-22.31838268 44.37474261 -20.97794481 35.60225653 -19.53344727 26.77197266 C-19.12143844 24.24377028 -18.72153364 21.7138359 -18.32226562 19.18359375 C-18.06061979 17.56498697 -17.79827562 15.94649289 -17.53515625 14.328125 C-17.4173732 13.57708496 -17.29959015 12.82604492 -17.17823792 12.05224609 C-15.97202911 4.80198693 -15.97202911 4.80198693 -14.0625 2.265625 C-9.67687646 -0.36200428 -4.95488305 -0.02406794 0 0 Z M-7.0625 9.265625 C-8.04765088 14.84728927 -9.02829595 20.4294012 -9.99829102 26.01367188 C-10.32846905 27.90701394 -10.66108595 29.79993259 -10.99633789 31.69238281 C-11.48209678 34.43702947 -11.95860526 37.18315881 -12.43359375 39.9296875 C-12.58154892 40.75425446 -12.72950409 41.57882141 -12.88194275 42.42837524 C-14.13630924 49.76987112 -14.52328568 56.71662448 -15.0625 64.265625 C-30.5725 64.265625 -46.0825 64.265625 -62.0625 64.265625 C-64.27008719 68.68079937 -64.38691633 74.17504803 -65.125 79.015625 C-65.31126953 80.19640625 -65.49753906 81.3771875 -65.68945312 82.59375 C-65.86541016 83.7384375 -66.04136719 84.883125 -66.22265625 86.0625 C-66.46447632 87.63016113 -66.46447632 87.63016113 -66.71118164 89.22949219 C-67.17744548 92.74959827 -67.17744548 92.74959827 -67.0625 98.265625 C-51.8825 98.265625 -36.7025 98.265625 -21.0625 98.265625 C-21.7225 100.575625 -22.3825 102.885625 -23.0625 105.265625 C-23.53086213 107.73777702 -23.95886316 110.21783107 -24.3515625 112.703125 C-24.45971283 113.38689209 -24.56786316 114.07065918 -24.67929077 114.77514648 C-24.90493106 116.21010489 -25.12834363 117.64541524 -25.34960938 119.08105469 C-25.68677987 121.26096912 -26.03435024 123.439053 -26.3828125 125.6171875 C-26.60219191 127.0207351 -26.82096237 128.42437804 -27.0390625 129.828125 C-27.23580566 131.08753906 -27.43254883 132.34695313 -27.63525391 133.64453125 C-28.19920457 137.81655285 -28.19920457 137.81655285 -28.0625 144.265625 C-41.2625 144.265625 -54.4625 144.265625 -68.0625 144.265625 C-68.7225 148.57625 -69.3825 152.886875 -70.0625 157.328125 C-70.27132813 158.67398682 -70.48015625 160.01984863 -70.6953125 161.40649414 C-70.85773438 162.48535889 -71.02015625 163.56422363 -71.1875 164.67578125 C-71.35507812 165.77027588 -71.52265625 166.86477051 -71.6953125 167.99243164 C-72.19256109 171.87606524 -72.19256109 171.87606524 -72.0625 178.265625 C-59.8525 178.595625 -47.6425 178.925625 -35.0625 179.265625 C-38.0625 197.265625 -41.0625 215.265625 -44.0625 233.265625 C-32.1825 233.265625 -20.3025 233.265625 -8.0625 233.265625 C-5.46536678 220.95328975 -3.25047776 208.6326849 -1.3125 196.203125 C-1.19999908 195.48600342 -1.08749817 194.76888184 -0.97158813 194.0300293 C-0.64979765 191.97231262 -0.33182551 189.91405113 -0.015625 187.85546875 C0.16838867 186.65784912 0.35240234 185.46022949 0.54199219 184.22631836 C1.003705 181.26785977 1.003705 181.26785977 0.9375 178.265625 C19.0875 178.265625 37.2375 178.265625 55.9375 178.265625 C54.9475 182.885625 53.9575 187.505625 52.9375 192.265625 C52.37489268 195.37252417 51.82993028 198.46963406 51.33203125 201.5859375 C51.20309982 202.3778952 51.0741684 203.16985291 50.94132996 203.98580933 C50.67505541 205.62697808 50.41050564 207.26842763 50.14770508 208.91015625 C49.74485256 211.42272934 49.33467157 213.93403495 48.92382812 216.4453125 C48.66363186 218.05461793 48.40385049 219.66399051 48.14453125 221.2734375 C48.02269974 222.01820343 47.90086823 222.76296936 47.77534485 223.53030396 C47.24939619 226.84138495 46.9375 229.90094626 46.9375 233.265625 C58.4875 233.265625 70.0375 233.265625 81.9375 233.265625 C83.53424461 226.19871406 83.53424461 226.19871406 84.80712891 219.11303711 C85.01994507 217.74423401 85.01994507 217.74423401 85.23706055 216.34777832 C85.37797119 215.42219116 85.51888184 214.496604 85.6640625 213.54296875 C85.86745239 212.22963562 85.86745239 212.22963562 86.07495117 210.88977051 C86.57403707 207.66138732 87.06797711 204.4322103 87.5625 201.203125 C88.67625 193.96375 89.79 186.724375 90.9375 179.265625 C113.7075 178.770625 113.7075 178.770625 136.9375 178.265625 C138.64602915 170.59338765 138.64602915 170.59338765 139.7890625 162.91796875 C139.90588379 161.92531006 140.02270508 160.93265137 140.14306641 159.90991211 C140.28147949 158.68667236 140.41989258 157.46343262 140.5625 156.203125 C141.01625 152.26375 141.47 148.324375 141.9375 144.265625 C127.0875 144.265625 112.2375 144.265625 96.9375 144.265625 C97.9275 140.305625 97.9275 140.305625 98.9375 136.265625 C99.7802274 131.7907725 100.5036782 127.29780887 101.22460938 122.80200195 C101.56244591 120.70346102 101.90984336 118.60664725 102.2578125 116.50976562 C102.47714448 115.15634419 102.69591366 113.80283139 102.9140625 112.44921875 C103.11080566 111.23806396 103.30754883 110.02690918 103.51025391 108.77905273 C104.07833361 104.69737482 104.07833361 104.69737482 103.9375 98.265625 C117.7975 98.265625 131.6575 98.265625 145.9375 98.265625 C149.41729744 81.40502629 149.41729744 81.40502629 150.9375 64.265625 C137.4075 64.265625 123.8775 64.265625 109.9375 64.265625 C111.05125 58.8515625 111.05125 58.8515625 112.1875 53.328125 C114.05583368 44.08508195 115.75152793 34.82588307 117.25 25.515625 C117.42112305 24.46383057 117.59224609 23.41203613 117.76855469 22.32836914 C117.92356445 21.34344482 118.07857422 20.35852051 118.23828125 19.34375 C118.37403564 18.48168945 118.50979004 17.61962891 118.6496582 16.73144531 C119.03412115 13.85167263 119.03412115 13.85167263 118.9375 9.265625 C107.0575 9.265625 95.1775 9.265625 82.9375 9.265625 C81.95802118 15.81253302 80.97912772 22.35952314 80.00170898 28.90673828 C79.66936809 31.1317242 79.3366902 33.35665981 79.00366211 35.58154297 C78.52367921 38.78860359 78.04492823 41.99584611 77.56640625 45.203125 C77.41845108 46.18990234 77.27049591 47.17667969 77.11805725 48.19335938 C76.97798752 49.13373047 76.83791779 50.07410156 76.69360352 51.04296875 C76.51040306 52.26874634 76.51040306 52.26874634 76.32350159 53.51928711 C75.82080157 57.09591514 75.38548653 60.68173278 74.9375 64.265625 C57.1175 63.935625 39.2975 63.605625 20.9375 63.265625 C24.9375 39.078125 24.9375 39.078125 26.203125 31.46411133 C26.53156676 29.4670117 26.85971187 27.46986326 27.1875 25.47265625 C27.36023438 24.44023804 27.53296875 23.40781982 27.7109375 22.34411621 C27.87335938 21.34988647 28.03578125 20.35565674 28.203125 19.33129883 C28.34524414 18.47192215 28.48736328 17.61254547 28.63378906 16.72712708 C29.0395465 13.85192468 29.0395465 13.85192468 28.9375 9.265625 C17.0575 9.265625 5.1775 9.265625 -7.0625 9.265625 Z " fill="#FDFEFD" transform="translate(400.0625,127.734375)"/>
<path d="M0 0 C17.82 0 35.64 0 54 0 C53.36331078 6.3668922 52.66665054 12.56780751 51.58984375 18.8515625 C51.47290161 19.54918701 51.35595947 20.24681152 51.23547363 20.96557617 C50.80641601 23.51932494 50.3716452 26.07211121 49.9375 28.625 C48.968125 34.35875 47.99875 40.0925 47 46 C28.85 46 10.7 46 -8 46 C-7.05125 39.709375 -6.1025 33.41875 -5.125 26.9375 C-4.82996582 24.96515381 -4.53493164 22.99280762 -4.23095703 20.96069336 C-3.9902704 19.37868844 -3.7492445 17.79673509 -3.5078125 16.21484375 C-3.38849365 15.40857544 -3.2691748 14.60230713 -3.14624023 13.77160645 C-2.96387817 12.58516541 -2.96387817 12.58516541 -2.77783203 11.37475586 C-2.6756839 10.69746933 -2.57353577 10.0201828 -2.46829224 9.32237244 C-1.83289004 6.17126203 -0.88310057 3.090852 0 0 Z M8 9 C6.76242032 13.33152887 5.7417154 16.93562818 5.1484375 21.27734375 C5.03161621 22.11257568 4.91479492 22.94780762 4.79443359 23.80834961 C4.65602051 24.84096924 4.51760742 25.87358887 4.375 26.9375 C3.92125 30.258125 3.4675 33.57875 3 37 C14.88 37 26.76 37 39 37 C39.66 33.308125 40.32 29.61625 41 25.8125 C41.20882812 24.6572583 41.41765625 23.5020166 41.6328125 22.31176758 C41.79523438 21.39032959 41.95765625 20.4688916 42.125 19.51953125 C42.29257812 18.58214111 42.46015625 17.64475098 42.6328125 16.67895508 C43.11316174 13.62505277 43.11316174 13.62505277 43 9 C31.45 9 19.9 9 8 9 Z " fill="#FDFEFE" transform="translate(415,226)"/>
<path d="M0 0 C17.82 0 35.64 0 54 0 C54 1.65 54 3.3 54 5 C53.505 4.01 53.505 4.01 53 3 C49.67014587 2.09468893 46.4644392 1.85818225 43.02612305 1.79467773 C42.06550461 1.77473251 41.10488617 1.75478729 40.11515808 1.73423767 C38.57895561 1.70916893 38.57895561 1.70916893 37.01171875 1.68359375 C35.95338333 1.66281265 34.89504791 1.64203156 33.80464172 1.62062073 C30.43232559 1.55536897 27.05993326 1.49635363 23.6875 1.4375 C21.39777866 1.3942916 19.10806495 1.35067657 16.81835938 1.30664062 C11.21231955 1.19971259 5.60620434 1.09790137 0 1 C0 0.67 0 0.34 0 0 Z " fill="#EAFCEF" transform="translate(415,226)"/>
</svg>
