<svg width="575" height="84" viewBox="0 0 575 84" fill="none" xmlns="http://www.w3.org/2000/svg">
<path d="M560.725 24.859C561.358 24.859 561.869 24.3479 561.869 23.7176C561.869 23.0872 561.358 22.5762 560.725 22.5762C560.097 22.5762 559.586 23.0872 559.586 23.7176C559.586 24.3479 560.097 24.859 560.725 24.859Z" fill="#19191A"/>
<path d="M556.165 24.859C556.799 24.859 557.306 24.3479 557.306 23.7176C557.306 23.0872 556.799 22.5762 556.165 22.5762C555.536 22.5762 555.023 23.0872 555.023 23.7176C555.023 24.3479 555.536 24.859 556.165 24.859Z" fill="#19191A"/>
<path d="M552.768 10.0205H556.119C556.749 11.7985 558.394 16.8363 558.514 17.117C558.544 16.9766 560.201 11.4866 560.67 10.0517H564.152V22.5758C563.72 22.3263 563.288 22.0768 562.819 21.796C562.495 21.6245 562.195 21.4373 561.865 21.2969C561.835 18.8638 561.805 16.4463 561.733 13.9197C561.264 15.3702 559.649 20.4859 559.517 20.6263H557.361C557.361 20.6263 555.266 14.4188 555.164 14.138C555.134 16.5243 555.104 18.9106 555.026 21.3749C553.741 22.0611 552.978 22.4511 552.738 22.5446V10.0205H552.768Z" fill="#19191A"/>
<path d="M558.449 7.4515C564.259 7.4515 569.007 12.1838 569.007 18.0104C569.007 23.837 564.277 28.5693 558.449 28.5693C552.621 28.5693 547.891 23.837 547.891 18.0104C547.891 12.1838 552.621 7.4515 558.449 7.4515ZM558.449 5.45508C551.511 5.45508 545.891 11.0747 545.891 18.0104C545.891 24.9461 551.511 30.5657 558.449 30.5657C565.381 30.5657 571.001 24.9461 571.001 18.0104C571.001 11.0747 565.381 5.45508 558.449 5.45508Z" fill="#19191A"/>
<g clip-path="url(#clip0_6901_19009)">
<mask id="mask0_6901_19009" style="mask-type:luminance" maskUnits="userSpaceOnUse" x="15" y="17" width="546" height="54">
<path d="M561 17.5078H15V70.3853H561V17.5078Z" fill="white"/>
</mask>
<g mask="url(#mask0_6901_19009)">
<path d="M15 17.6765C19.7417 17.6367 24.4534 17.5969 29.3148 17.5572C30.7922 17.5572 32.3096 17.5572 33.8269 17.5074H41.4036C42.871 17.4577 43.8792 17.6964 44.4383 18.2237C44.8375 18.6615 45.2368 19.139 45.5563 19.6563C45.8358 20.0145 46.1153 20.3726 46.3948 20.7308C46.5146 20.8502 46.5945 20.9696 46.7142 21.1287C47.0736 21.5665 47.433 22.0042 47.8323 22.442C47.9121 22.5216 47.952 22.6012 48.0319 22.6807C48.2316 22.9195 48.4312 23.1583 48.6309 23.3971C49.5093 24.4317 50.3878 25.4664 51.2263 26.501C51.6256 26.9786 51.9849 27.4163 52.3843 27.8541C52.9033 27.6551 53.1829 27.3367 53.5422 26.899C54.1013 26.2225 54.6603 25.546 55.2193 24.9093C55.8583 24.1532 56.4972 23.3971 57.1357 22.6409C57.5351 22.1634 57.9345 21.6859 58.3339 21.2083C58.9728 20.4522 59.6114 19.7359 60.2106 18.9798C60.2904 18.8604 60.4101 18.7411 60.4899 18.6217C60.6096 18.4625 60.6897 18.3431 60.8095 18.1839C61.1288 17.786 61.2089 17.786 61.7677 17.6666H75.7234C80.4847 17.6666 85.2866 17.6765 90.1181 17.7064V58.8943H61.3583C61.3187 57.0237 61.2786 55.1932 61.1989 53.293C60.3601 54.2082 59.5617 55.0837 58.803 56.0388C58.3639 56.5959 57.8844 57.1531 57.4053 57.7101C57.1357 57.9986 56.8962 58.317 56.6867 58.6651C56.4772 59.0136 56.2873 59.133 56.1279 59.0233C55.968 58.9139 55.8382 58.9139 55.7285 59.0233H53.2128C52.6538 59.0233 52.1347 59.0233 51.5757 59.0633C49.7689 59.113 48.581 58.8943 48.0219 58.3867C47.6226 57.9489 47.2633 57.4714 46.9438 56.9541C46.7043 56.5562 46.3848 56.2378 46.1053 55.8796C45.8957 55.611 45.6761 55.3623 45.4664 55.1235C44.9873 54.5664 44.5081 53.9695 44.029 53.4124C43.989 55.2031 43.9491 57.0337 43.8692 58.8943H15V17.6765Z" fill="#19191A"/>
<path d="M461.172 17.6768H489.934V38.7083H507.564V17.6768H536.322V58.8644H507.564V49.3634H489.934V58.8644H461.172V17.6768Z" fill="#19191A"/>
<path d="M249.818 17.6768H302.465C302.545 17.9553 302.585 18.2339 302.665 18.4727C302.665 18.6318 302.745 18.791 302.785 18.9502C302.944 19.6665 303.104 20.343 303.264 21.0593C303.294 21.2185 303.334 21.3777 303.384 21.5369C303.503 22.0542 303.583 22.5715 303.703 23.1287C303.783 23.5266 303.863 23.8847 303.942 24.2827C304.102 25.0786 304.302 25.9143 304.462 26.7102C304.741 27.9836 304.981 29.2969 305.26 30.5703C305.34 31.0081 305.46 31.4458 305.54 31.8835C305.54 31.993 305.57 32.0924 305.62 32.2019C305.779 32.9978 305.939 33.7937 306.099 34.5896C306.738 37.614 307.377 40.5887 307.976 43.6131C308.135 44.2896 308.255 44.9661 308.415 45.6426C308.455 45.8814 308.495 46.0804 308.574 46.3191C308.574 46.4385 308.614 46.5181 308.654 46.6375C308.654 46.7569 308.694 46.8364 308.734 46.9559C308.734 47.0752 308.774 47.1548 308.814 47.2742C309.053 48.468 309.293 49.6221 309.573 50.816C309.772 51.7312 309.972 52.6465 310.132 53.5618C310.212 54.0394 310.331 54.4771 310.411 54.9546C310.531 55.4719 310.611 55.9495 310.731 56.4668C310.731 56.626 310.81 56.7454 310.81 56.9046C310.81 57.024 310.851 57.1831 310.89 57.3025C310.89 57.4119 310.92 57.5314 310.97 57.6606C311.05 58.0588 311.13 58.4566 311.17 58.8944H240.773C240.973 57.78 241.173 56.6658 241.373 55.5914C241.373 55.4322 241.452 55.273 241.452 55.1536C241.572 54.6363 241.652 54.1587 241.772 53.6414L242.012 52.5669C242.211 51.6914 242.371 50.816 242.57 49.9405C242.73 49.2241 242.89 48.5079 243.01 47.7915C243.609 44.9263 244.208 42.071 244.807 39.2058C244.926 38.6089 245.046 38.012 245.166 37.415C245.805 34.311 246.483 31.1772 247.122 28.0732C247.282 27.2773 247.482 26.4416 247.642 25.6457C247.841 24.6508 248.041 23.6559 248.28 22.6611C248.4 22.1438 248.48 21.6662 248.6 21.1489C248.72 20.5917 248.839 20.0346 248.959 19.4775C248.959 19.3183 249.039 19.1591 249.079 18.9999C249.079 18.8408 249.159 18.7214 249.159 18.5622C249.159 18.4428 249.199 18.3234 249.239 18.1642C249.319 17.8724 249.505 17.7265 249.798 17.7265L249.838 17.6867L249.818 17.6768ZM275.902 28.7696C275.063 32.5501 274.265 36.3605 273.466 40.141C273.267 41.0165 273.107 41.892 272.907 42.7674C272.747 43.444 272.628 44.1205 272.468 44.797C272.388 45.1153 272.348 45.4337 272.268 45.7521C272.188 46.1898 272.069 46.6275 271.989 47.1051C271.959 47.2344 271.939 47.3737 271.909 47.503C271.909 47.6224 271.869 47.7418 271.829 47.8612C271.829 47.9806 271.789 48.0602 271.749 48.1795C271.699 48.4482 271.679 48.7864 271.709 49.2142H280.244C280.114 48.289 279.955 47.3438 279.765 46.3888C279.765 46.2296 279.685 46.0704 279.645 45.9113C279.645 45.7521 279.565 45.5929 279.525 45.3939C279.525 45.1949 279.446 45.0357 279.406 44.8368C279.286 44.3592 279.206 43.8419 279.086 43.3644C278.967 42.847 278.886 42.3297 278.767 41.8124C278.567 40.8573 278.368 39.8624 278.168 38.9074C277.928 37.7931 277.689 36.6788 277.449 35.5646C276.97 33.2963 276.491 30.9882 276.011 28.7298H275.852L275.892 28.7696H275.902Z" fill="#19191A"/>
<path d="M318.654 17.6768H384.988V28.3319H347.573V38.7083H384.988V49.3634H347.573V58.8644H318.654V17.6768Z" fill="#19191A"/>
<path d="M95.8086 17.6768H162.142V28.3319H124.728V38.7083H162.142V49.3634H124.728V58.8644H95.8086V17.6768Z" fill="#19191A"/>
<path d="M389.93 17.6768H456.141V28.3319H437.514V58.8644H408.597V28.3319H389.97V17.6768H389.93Z" fill="#19191A"/>
<path d="M173.032 17.6769H233.107V28.332H201.312C199.675 28.332 198.397 28.8892 197.2 29.9636C195.802 31.3962 195.682 32.988 195.722 34.8882V54.1688C195.722 55.5617 195.762 56.7953 196.641 57.9495C196.721 58.0288 196.8 58.1085 196.92 58.1882C197.08 58.3473 197.24 58.4666 197.399 58.6261V58.7851H166.883V23.1587C166.883 21.5271 167.562 20.3333 168.64 19.1394C169.838 17.9854 171.395 17.5078 173.022 17.5078V17.667L173.032 17.6769Z" fill="#19191A"/>
<path d="M204.346 38.6973H233.105V58.8534H204.346V38.6973Z" fill="#19191A"/>
<path d="M318.654 60.168H384.988V64.5055H318.654V60.168Z" fill="#19191A"/>
<path d="M95.8086 60.168H162.142V64.5055H95.8086V60.168Z" fill="#19191A"/>
<path d="M166.934 60.168H233.147V64.5055H166.934V60.168Z" fill="#19191A"/>
<path d="M318.654 67.083H384.988V70.3858H318.654V67.083Z" fill="#19191A"/>
<path d="M95.8086 67.083H162.142V70.3858H95.8086V67.083Z" fill="#19191A"/>
<path d="M167.332 67.0821H233.106V70.3849H173.831C171.395 70.3849 169.798 69.9471 168.051 68.1961C167.891 67.9874 167.662 67.5992 167.372 67.042L167.332 67.0821Z" fill="#19191A"/>
<path d="M408.559 60.168H437.48V64.5055H408.559V60.168Z" fill="#19191A"/>
<path d="M15 60.168H43.9191V64.5055H15V60.168Z" fill="#19191A"/>
<path d="M282.518 60.168H311.437C312.026 62.8443 312.315 64.2868 312.315 64.5055H283.396C282.807 61.8296 282.518 60.3871 282.518 60.168Z" fill="#19191A"/>
<path d="M240.484 60.168H269.403C268.814 62.9537 268.485 64.3962 268.405 64.5055H239.605C239.805 63.0334 240.165 61.6005 240.484 60.168Z" fill="#19191A"/>
<path d="M507.564 60.168H536.323V64.5055H507.564V60.168Z" fill="#19191A"/>
<path d="M461.172 60.168H489.934V64.5055H461.172V60.168Z" fill="#19191A"/>
<path d="M61.3887 60.168H90.148V64.5055H61.3887V60.168Z" fill="#19191A"/>
<path d="M408.559 67.083H437.48V70.3858H408.559V67.083Z" fill="#19191A"/>
<path d="M15 67.083H43.9191V70.3858H15V67.083Z" fill="#19191A"/>
<path d="M283.996 67.083H312.915C313.285 68.8039 313.474 69.9083 313.474 70.3858H284.715C284.345 68.844 284.106 67.7496 283.996 67.083Z" fill="#19191A"/>
<path d="M239.046 67.083H267.806C267.695 68.038 267.496 69.1324 267.206 70.3858H238.287C238.686 68.3761 238.926 67.2721 239.006 67.083H239.046Z" fill="#19191A"/>
<path d="M507.564 67.083H536.323V70.3858H507.564V67.083Z" fill="#19191A"/>
<path d="M461.172 67.083H489.934V70.3858H461.172V67.083Z" fill="#19191A"/>
<path d="M61.3887 67.083H90.148V70.3858H61.3887V67.083Z" fill="#19191A"/>
<path d="M49.8596 60.1676H55.2002C54.9607 60.6054 54.8009 60.8838 54.4815 61.242C54.4016 61.3217 54.3218 61.4411 54.2419 61.5204C54.162 61.6301 54.0722 61.7195 53.9624 61.7992C53.8027 61.9983 53.603 62.197 53.4433 62.3961C53.3634 62.4758 53.2836 62.5551 53.2037 62.6348C53.044 62.8239 52.8843 63.0426 52.7246 63.3114C52.1656 63.0726 51.886 62.7542 51.5267 62.2767C51.0475 61.6798 50.5284 61.0829 50.0094 60.4861C49.8995 60.3567 49.8496 60.2373 49.8496 60.1279V60.1676H49.8596Z" fill="#19191A"/>
</g>
</g>
<defs>
<clipPath id="clip0_6901_19009">
<rect width="546" height="52.8775" fill="white" transform="translate(15 17.5078)"/>
</clipPath>
</defs>
</svg>
